<svg width="45" height="45" viewBox="0 0 45 45" fill="none" xmlns="http://www.w3.org/2000/svg">
<path d="M22.1429 18.6429C23.4529 17.3043 25.1586 16.4286 27.1429 16.4286C29.2267 16.4286 31.2252 17.2564 32.6987 18.7299C34.1722 20.2034 35 22.2019 35 24.2857V35H32.1429V24.2857C32.1429 22.9596 31.6161 21.6879 30.6784 20.7502C29.7407 19.8125 28.4689 19.2857 27.1429 19.2857C25.8168 19.2857 24.545 19.8125 23.6073 20.7502C22.6696 21.6879 22.1429 22.9596 22.1429 24.2857V35H19.2857V17.1429H22.1429V18.6429ZM12.1429 14.2857C11.5745 14.2857 11.0295 14.0599 10.6276 13.6581C10.2258 13.2562 10 12.7112 10 12.1429C10 11.5745 10.2258 11.0295 10.6276 10.6276C11.0295 10.2258 11.5745 10 12.1429 10C12.7112 10 13.2562 10.2258 13.6581 10.6276C14.0599 11.0295 14.2857 11.5745 14.2857 12.1429C14.2857 12.7112 14.0599 13.2562 13.6581 13.6581C13.2562 14.0599 12.7112 14.2857 12.1429 14.2857ZM10.7143 17.1429H13.5714V35H10.7143V17.1429Z" fill="white"/>
</svg>
