<svg width="45" height="43" viewBox="0 0 45 43" fill="none" xmlns="http://www.w3.org/2000/svg">
<path d="M33.1492 10.0023C32.8405 10.0248 32.5374 10.0972 32.2519 10.2168H32.248C31.9739 10.3255 30.6707 10.8737 28.6895 11.7046L21.5898 14.6947C16.4954 16.8394 11.4875 18.9515 11.4875 18.9515L11.5471 18.9284C11.5471 18.9284 11.2018 19.0419 10.8412 19.289C10.6184 19.4308 10.4266 19.6163 10.2776 19.8344C10.1006 20.094 9.95829 20.4912 10.0112 20.9019C10.0977 21.5963 10.5478 22.0128 10.871 22.2426C11.198 22.4754 11.5096 22.584 11.5096 22.584H11.5173L16.2136 24.1661C16.4242 24.8422 17.6447 28.8547 17.938 29.779C18.1111 30.331 18.2794 30.6763 18.4901 30.9398C18.592 31.0744 18.7113 31.187 18.8546 31.2774C18.9291 31.3207 19.0085 31.3549 19.0912 31.3793L19.0431 31.3678C19.0575 31.3716 19.069 31.3832 19.0796 31.387C19.1181 31.3976 19.1441 31.4014 19.1931 31.4091C19.9365 31.6342 20.5338 31.1725 20.5338 31.1725L20.5675 31.1456L23.3402 28.621L27.9874 32.1862L28.0932 32.2314C29.0617 32.6565 30.0427 32.42 30.5611 32.0025C31.0833 31.5823 31.2863 31.0446 31.2863 31.0446L31.3199 30.9581L34.9111 12.5606C35.0131 12.1066 35.0391 11.6815 34.9265 11.2689C34.8105 10.8514 34.5426 10.4922 34.1754 10.262C33.8671 10.0745 33.5096 9.98407 33.1492 10.0023ZM33.0521 11.9739C33.0482 12.0345 33.0597 12.0278 33.0328 12.1441V12.1547L29.4753 30.3608C29.4599 30.3868 29.4339 30.4435 29.3627 30.5003C29.2877 30.5599 29.2281 30.5974 28.9155 30.4734L23.2315 26.1156L19.798 29.2452L20.5194 24.6384L29.8061 15.9825C30.1889 15.6267 30.061 15.5517 30.061 15.5517C30.0879 15.115 29.483 15.4237 29.483 15.4237L17.7726 22.6783L17.7687 22.6591L12.1559 20.7692V20.7653L12.1415 20.7625C12.1513 20.7592 12.161 20.7553 12.1703 20.7509L12.2011 20.7355L12.2309 20.725C12.2309 20.725 17.2427 18.6129 22.3371 16.4682C24.8877 15.3939 27.4575 14.3119 29.4339 13.4771C30.6061 12.9838 31.7794 12.4933 32.954 12.0056C33.0328 11.9749 32.9953 11.9739 33.0521 11.9739Z" fill="white"/>
</svg>
