<svg width="45" height="45" viewBox="0 0 45 45" fill="none" xmlns="http://www.w3.org/2000/svg">
<path d="M28.75 15.3571H30.5357M17.1429 10H27.8571C29.7515 10 31.5684 10.7525 32.9079 12.0921C34.2475 13.4316 35 15.2485 35 17.1429V27.8571C35 29.7515 34.2475 31.5684 32.9079 32.9079C31.5684 34.2475 29.7515 35 27.8571 35H17.1429C15.2485 35 13.4316 34.2475 12.0921 32.9079C10.7525 31.5684 10 29.7515 10 27.8571V17.1429C10 15.2485 10.7525 13.4316 12.0921 12.0921C13.4316 10.7525 15.2485 10 17.1429 10ZM22.5 27.8571C21.0792 27.8571 19.7166 27.2927 18.7119 26.2881C17.7073 25.2834 17.1429 23.9208 17.1429 22.5C17.1429 21.0792 17.7073 19.7166 18.7119 18.7119C19.7166 17.7073 21.0792 17.1429 22.5 17.1429C23.9208 17.1429 25.2834 17.7073 26.2881 18.7119C27.2927 19.7166 27.8571 21.0792 27.8571 22.5C27.8571 23.9208 27.2927 25.2834 26.2881 26.2881C25.2834 27.2927 23.9208 27.8571 22.5 27.8571Z" stroke="white"/>
</svg>
