<svg width="45" height="39" viewBox="0 0 45 39" fill="none" xmlns="http://www.w3.org/2000/svg">
<path d="M35 18.9872C35 18.9258 35 18.856 34.9972 18.7751C34.9944 18.5491 34.9888 18.2952 34.9833 18.0246C34.9609 17.2461 34.9219 16.4704 34.8605 15.7394C34.7768 14.7321 34.654 13.8923 34.4866 13.2617C34.3099 12.6037 33.9636 12.0035 33.4823 11.5212C33.001 11.0389 32.4016 10.6914 31.7439 10.5134C30.9542 10.3013 29.4085 10.1702 27.2321 10.0893C26.197 10.0502 25.0893 10.0251 23.9816 10.0112C23.5937 10.0056 23.2338 10.0028 22.9102 10H22.0898C21.7662 10.0028 21.4062 10.0056 21.0184 10.0112C19.9107 10.0251 18.803 10.0502 17.7679 10.0893C15.5915 10.173 14.043 10.3041 13.2561 10.5134C12.5982 10.691 11.9985 11.0383 11.5171 11.5207C11.0358 12.003 10.6896 12.6034 10.5134 13.2617C10.3432 13.8923 10.2232 14.7321 10.1395 15.7394C10.0781 16.4704 10.0391 17.2461 10.0167 18.0246C10.0084 18.2952 10.0056 18.5491 10.0028 18.7751C10.0028 18.856 10 18.9258 10 18.9872V19.1434C10 19.2048 10 19.2746 10.0028 19.3555C10.0056 19.5815 10.0112 19.8354 10.0167 20.106C10.0391 20.8845 10.0781 21.6602 10.1395 22.3912C10.2232 23.3984 10.346 24.2383 10.5134 24.8689C10.8705 26.2054 11.9196 27.26 13.2561 27.6172C14.043 27.8292 15.5915 27.9604 17.7679 28.0413C18.803 28.0804 19.9107 28.1055 21.0184 28.1194C21.4062 28.125 21.7662 28.1278 22.0898 28.1306H22.9102C23.2338 28.1278 23.5937 28.125 23.9816 28.1194C25.0893 28.1055 26.197 28.0804 27.2321 28.0413C29.4085 27.9576 30.957 27.8265 31.7439 27.6172C33.0804 27.26 34.1295 26.2081 34.4866 24.8689C34.6568 24.2383 34.7768 23.3984 34.8605 22.3912C34.9219 21.6602 34.9609 20.8845 34.9833 20.106C34.9916 19.8354 34.9944 19.5815 34.9972 19.3555C34.9972 19.2746 35 19.2048 35 19.1434V18.9872ZM32.9911 19.1323C32.9911 19.1908 32.9911 19.255 32.9883 19.3304C32.9855 19.548 32.9799 19.7879 32.9743 20.0474C32.9548 20.7896 32.9157 21.5318 32.8571 22.221C32.7818 23.1194 32.6758 23.856 32.5446 24.3499C32.3717 24.9944 31.8638 25.505 31.2221 25.6752C30.6362 25.8315 29.1602 25.957 27.154 26.0324C26.1384 26.0714 25.0446 26.0965 23.9537 26.1105C23.5714 26.1161 23.2171 26.1189 22.899 26.1189H22.101L21.0463 26.1105C19.9554 26.0965 18.8644 26.0714 17.846 26.0324C15.8398 25.9542 14.361 25.8315 13.7779 25.6752C13.1362 25.5022 12.6283 24.9944 12.4554 24.3499C12.3242 23.856 12.2182 23.1194 12.1429 22.221C12.0843 21.5318 12.048 20.7896 12.0257 20.0474C12.0173 19.7879 12.0145 19.5452 12.0117 19.3304C12.0117 19.255 12.0089 19.1881 12.0089 19.1323V18.9983C12.0089 18.9397 12.0089 18.8756 12.0117 18.8002C12.0145 18.5826 12.0201 18.3426 12.0257 18.0831C12.0452 17.341 12.0843 16.5988 12.1429 15.9096C12.2182 15.0112 12.3242 14.2746 12.4554 13.7807C12.6283 13.1362 13.1362 12.6256 13.7779 12.4554C14.3638 12.2991 15.8398 12.1735 17.846 12.0982C18.8616 12.0592 19.9554 12.034 21.0463 12.0201C21.4286 12.0145 21.7829 12.0117 22.101 12.0117H22.899L23.9537 12.0201C25.0446 12.034 26.1356 12.0592 27.154 12.0982C29.1602 12.1763 30.639 12.2991 31.2221 12.4554C31.8638 12.6283 32.3717 13.1362 32.5446 13.7807C32.6758 14.2746 32.7818 15.0112 32.8571 15.9096C32.9157 16.5988 32.952 17.341 32.9743 18.0831C32.9827 18.3426 32.9855 18.5854 32.9883 18.8002C32.9883 18.8756 32.9911 18.9425 32.9911 18.9983V19.1323ZM20.0167 22.8041L26.49 19.0374L20.0167 15.3265V22.8041Z" fill="white"/>
</svg>
