<svg width="1512" height="960" viewBox="0 0 1512 960" fill="none" xmlns="http://www.w3.org/2000/svg">
<g opacity="0.66">
<ellipse cx="769.517" cy="598.642" rx="1.06268" ry="1.29856" fill="white"/>
<ellipse cx="1144.43" cy="637.08" rx="1.06268" ry="1.29856" fill="white"/>
<ellipse cx="952.298" cy="690.056" rx="1.06268" ry="1.29856" fill="white"/>
<ellipse cx="954.424" cy="471.908" rx="1.06268" ry="1.29856" fill="white"/>
<ellipse cx="1211.59" cy="601.244" rx="1.06268" ry="1.29856" fill="white"/>
<ellipse cx="1066.22" cy="723.822" rx="1.06268" ry="1.29856" fill="white"/>
<ellipse cx="1221.79" cy="741.486" rx="1.06268" ry="1.29856" fill="white"/>
<ellipse cx="1159.73" cy="474.494" rx="1.06268" ry="1.29856" fill="white"/>
<ellipse cx="1047.09" cy="490.603" rx="1.06268" ry="1.29856" fill="white"/>
<ellipse cx="769.517" cy="738.885" rx="1.06268" ry="1.29856" fill="white"/>
<ellipse cx="748.263" cy="445.931" rx="1.06268" ry="1.29856" fill="white"/>
<ellipse cx="899.589" cy="613.189" rx="1.06268" ry="1.29856" fill="white"/>
<ellipse cx="1053.47" cy="610.588" rx="1.06268" ry="1.29856" fill="white"/>
<ellipse cx="1243.9" cy="430.869" rx="1.06268" ry="1.29856" fill="white"/>
<ellipse cx="146.574" cy="404.713" rx="1.06268" ry="1.29856" fill="white"/>
<ellipse cx="521.488" cy="443.15" rx="1.06268" ry="1.29856" fill="white"/>
<ellipse cx="329.356" cy="496.127" rx="1.06268" ry="1.29856" fill="white"/>
<ellipse cx="331.481" cy="277.978" rx="1.06268" ry="1.29856" fill="white"/>
<ellipse cx="588.65" cy="407.314" rx="1.06268" ry="1.29856" fill="white"/>
<ellipse cx="443.275" cy="529.892" rx="1.06268" ry="1.29856" fill="white"/>
<ellipse cx="598.852" cy="547.556" rx="1.06268" ry="1.29856" fill="white"/>
<ellipse cx="536.792" cy="280.564" rx="1.06268" ry="1.29856" fill="white"/>
<ellipse cx="424.147" cy="296.674" rx="1.06268" ry="1.29856" fill="white"/>
<ellipse cx="146.574" cy="544.955" rx="1.06268" ry="1.29856" fill="white"/>
<ellipse cx="125.32" cy="252.002" rx="1.06268" ry="1.29856" fill="white"/>
<ellipse cx="276.646" cy="419.259" rx="1.06268" ry="1.29856" fill="white"/>
<ellipse cx="430.523" cy="416.658" rx="1.06268" ry="1.29856" fill="white"/>
<ellipse cx="620.956" cy="236.939" rx="1.06268" ry="1.29856" fill="white"/>
<ellipse cx="959.504" cy="277.674" rx="1.06268" ry="1.29856" fill="white"/>
<ellipse cx="1334.42" cy="316.111" rx="1.06268" ry="1.29856" fill="white"/>
<ellipse cx="1142.29" cy="369.088" rx="1.06268" ry="1.29856" fill="white"/>
<ellipse cx="1144.41" cy="150.939" rx="1.06268" ry="1.29856" fill="white"/>
<ellipse cx="1401.58" cy="280.275" rx="1.06268" ry="1.29856" fill="white"/>
<ellipse cx="1256.2" cy="402.853" rx="1.06268" ry="1.29856" fill="white"/>
<ellipse cx="1411.78" cy="420.517" rx="1.06268" ry="1.29856" fill="white"/>
<ellipse cx="1349.72" cy="153.525" rx="1.06268" ry="1.29856" fill="white"/>
<ellipse cx="1237.08" cy="169.634" rx="1.06268" ry="1.29856" fill="white"/>
<ellipse cx="959.504" cy="417.916" rx="1.06268" ry="1.29856" fill="white"/>
<ellipse cx="938.25" cy="124.963" rx="1.06268" ry="1.29856" fill="white"/>
<ellipse cx="1089.58" cy="292.22" rx="1.06268" ry="1.29856" fill="white"/>
<ellipse cx="1243.45" cy="289.619" rx="1.06268" ry="1.29856" fill="white"/>
<ellipse cx="1433.89" cy="109.9" rx="1.06268" ry="1.29856" fill="white"/>
<ellipse cx="1014.89" cy="624.83" rx="1.06268" ry="1.29856" fill="white"/>
<ellipse cx="1389.81" cy="663.267" rx="1.06268" ry="1.29856" fill="white"/>
<ellipse cx="1197.68" cy="716.244" rx="1.06268" ry="1.29856" fill="white"/>
<ellipse cx="1199.8" cy="498.095" rx="1.06268" ry="1.29856" fill="white"/>
<ellipse cx="1456.97" cy="627.431" rx="1.06268" ry="1.29856" fill="white"/>
<ellipse cx="1311.6" cy="750.01" rx="1.06268" ry="1.29856" fill="white"/>
<ellipse cx="1467.17" cy="767.674" rx="1.06268" ry="1.29856" fill="white"/>
<ellipse cx="1405.11" cy="500.681" rx="1.06268" ry="1.29856" fill="white"/>
<ellipse cx="1292.47" cy="516.791" rx="1.06268" ry="1.29856" fill="white"/>
<ellipse cx="1014.89" cy="765.072" rx="1.06268" ry="1.29856" fill="white"/>
<ellipse cx="993.641" cy="472.119" rx="1.06268" ry="1.29856" fill="white"/>
<ellipse cx="1144.97" cy="639.377" rx="1.06268" ry="1.29856" fill="white"/>
<ellipse cx="1298.84" cy="636.775" rx="1.06268" ry="1.29856" fill="white"/>
<ellipse cx="1489.28" cy="457.056" rx="1.06268" ry="1.29856" fill="white"/>
<ellipse cx="22.3161" cy="458.041" rx="1.06268" ry="1.29856" fill="white"/>
<ellipse cx="397.231" cy="496.478" rx="1.06268" ry="1.29856" fill="white"/>
<ellipse cx="205.098" cy="549.455" rx="1.06268" ry="1.29856" fill="white"/>
<ellipse cx="207.223" cy="331.306" rx="1.06268" ry="1.29856" fill="white"/>
<ellipse cx="464.392" cy="460.642" rx="1.06268" ry="1.29856" fill="white"/>
<ellipse cx="319.017" cy="583.22" rx="1.06268" ry="1.29856" fill="white"/>
<ellipse cx="474.593" cy="600.885" rx="1.06268" ry="1.29856" fill="white"/>
<ellipse cx="412.533" cy="333.892" rx="1.06268" ry="1.29856" fill="white"/>
<ellipse cx="299.889" cy="350.002" rx="1.06268" ry="1.29856" fill="white"/>
<ellipse cx="22.3161" cy="598.283" rx="1.06268" ry="1.29856" fill="white"/>
<ellipse cx="1.06268" cy="305.33" rx="1.06268" ry="1.29856" fill="white"/>
<ellipse cx="152.389" cy="472.588" rx="1.06268" ry="1.29856" fill="white"/>
<ellipse cx="306.265" cy="469.986" rx="1.06268" ry="1.29856" fill="white"/>
<ellipse cx="496.698" cy="290.267" rx="1.06268" ry="1.29856" fill="white"/>
<ellipse cx="27.6767" cy="710.158" rx="1.06268" ry="1.29856" fill="white"/>
<ellipse cx="402.591" cy="748.595" rx="1.06268" ry="1.29856" fill="white"/>
<ellipse cx="210.458" cy="801.572" rx="1.06268" ry="1.29856" fill="white"/>
<ellipse cx="212.584" cy="583.424" rx="1.06268" ry="1.29856" fill="white"/>
<ellipse cx="469.753" cy="712.76" rx="1.06268" ry="1.29856" fill="white"/>
<ellipse cx="324.378" cy="835.338" rx="1.06268" ry="1.29856" fill="white"/>
<ellipse cx="479.954" cy="853.002" rx="1.06268" ry="1.29856" fill="white"/>
<ellipse cx="417.894" cy="586.01" rx="1.06268" ry="1.29856" fill="white"/>
<ellipse cx="305.25" cy="602.119" rx="1.06268" ry="1.29856" fill="white"/>
<ellipse cx="27.6767" cy="850.4" rx="1.06268" ry="1.29856" fill="white"/>
<ellipse cx="6.42328" cy="557.447" rx="1.06268" ry="1.29856" fill="white"/>
<ellipse cx="157.749" cy="724.705" rx="1.06268" ry="1.29856" fill="white"/>
<ellipse cx="311.626" cy="722.103" rx="1.06268" ry="1.29856" fill="white"/>
<ellipse cx="502.059" cy="542.385" rx="1.06268" ry="1.29856" fill="white"/>
<ellipse cx="1.14458" cy="1.20712" rx="1.14458" ry="1.20712" transform="matrix(-0.295223 -0.955429 0.939678 -0.342059 1378.2 761.57)" fill="white"/>
<ellipse cx="1.14458" cy="1.20712" rx="1.14458" ry="1.20712" transform="matrix(-0.295223 -0.955429 0.939678 -0.342059 1292.56 363.539)" fill="white"/>
<ellipse cx="1.14458" cy="1.20712" rx="1.14458" ry="1.20712" transform="matrix(-0.295223 -0.955429 0.939678 -0.342059 1399.93 544.406)" fill="white"/>
<ellipse cx="1.14458" cy="1.20712" rx="1.14458" ry="1.20712" transform="matrix(-0.295223 -0.955429 0.939678 -0.342059 1208.7 611.594)" fill="white"/>
<ellipse cx="1.14458" cy="1.20712" rx="1.14458" ry="1.20712" transform="matrix(-0.295223 -0.955429 0.939678 -0.342059 1239.9 305.82)" fill="white"/>
<ellipse cx="1.14458" cy="1.20712" rx="1.14458" ry="1.20712" transform="matrix(-0.295223 -0.955429 0.939678 -0.342059 1393.2 416.438)" fill="white"/>
<ellipse cx="1.14458" cy="1.20712" rx="1.14458" ry="1.20712" transform="matrix(-0.295223 -0.955429 0.939678 -0.342059 1359.16 250.727)" fill="white"/>
<ellipse cx="1.14458" cy="1.20712" rx="1.14458" ry="1.20712" transform="matrix(-0.295223 -0.955429 0.939678 -0.342059 1145.68 399.484)" fill="white"/>
<ellipse cx="1.14458" cy="1.20712" rx="1.14458" ry="1.20712" transform="matrix(-0.295223 -0.955429 0.939678 -0.342059 1195.57 510.289)" fill="white"/>
<ellipse cx="1.14458" cy="1.20712" rx="1.14458" ry="1.20712" transform="matrix(-0.295223 -0.955429 0.939678 -0.342059 1500.7 716.977)" fill="white"/>
<ellipse cx="1.14458" cy="1.20712" rx="1.14458" ry="1.20712" transform="matrix(-0.295223 -0.955429 0.939678 -0.342059 1251.56 832)" fill="white"/>
<ellipse cx="1.14458" cy="1.20712" rx="1.14458" ry="1.20712" transform="matrix(-0.295223 -0.955429 0.939678 -0.342059 1349.55 623.094)" fill="white"/>
<ellipse cx="1.14458" cy="1.20712" rx="1.14458" ry="1.20712" transform="matrix(-0.295223 -0.955429 0.939678 -0.342059 1298.35 465.57)" fill="white"/>
<ellipse cx="1.14458" cy="1.20712" rx="1.14458" ry="1.20712" transform="matrix(-0.295223 -0.955429 0.939678 -0.342059 1080.81 326.75)" fill="white"/>
<ellipse cx="748.091" cy="441.556" rx="1.06268" ry="1.29856" fill="#D9D9D9" fill-opacity="0.36"/>
<ellipse cx="1123.01" cy="479.994" rx="1.06268" ry="1.29856" fill="#D9D9D9" fill-opacity="0.36"/>
<ellipse cx="930.873" cy="532.97" rx="1.06268" ry="1.29856" fill="#D9D9D9" fill-opacity="0.36"/>
<ellipse cx="932.998" cy="314.822" rx="1.06268" ry="1.29856" fill="#D9D9D9" fill-opacity="0.36"/>
<ellipse cx="1190.17" cy="444.158" rx="1.06268" ry="1.29856" fill="#D9D9D9" fill-opacity="0.36"/>
<ellipse cx="1044.79" cy="566.736" rx="1.06268" ry="1.29856" fill="#D9D9D9" fill-opacity="0.36"/>
<ellipse cx="1200.37" cy="584.4" rx="1.06268" ry="1.29856" fill="#D9D9D9" fill-opacity="0.36"/>
<ellipse cx="1138.31" cy="317.408" rx="1.06268" ry="1.29856" fill="#D9D9D9" fill-opacity="0.36"/>
<ellipse cx="1025.66" cy="333.517" rx="1.06268" ry="1.29856" fill="#D9D9D9" fill-opacity="0.36"/>
<ellipse cx="748.091" cy="581.799" rx="1.06268" ry="1.29856" fill="#D9D9D9" fill-opacity="0.36"/>
<ellipse cx="726.837" cy="288.845" rx="1.06268" ry="1.29856" fill="#D9D9D9" fill-opacity="0.36"/>
<ellipse cx="878.164" cy="456.103" rx="1.06268" ry="1.29856" fill="#D9D9D9" fill-opacity="0.36"/>
<ellipse cx="1032.04" cy="453.502" rx="1.06268" ry="1.29856" fill="#D9D9D9" fill-opacity="0.36"/>
<ellipse cx="1222.47" cy="273.783" rx="1.06268" ry="1.29856" fill="#D9D9D9" fill-opacity="0.36"/>
<ellipse cx="111.657" cy="703.377" rx="1.06268" ry="1.29856" fill="white" fill-opacity="0.38"/>
<ellipse cx="486.572" cy="741.814" rx="1.06268" ry="1.29856" fill="white" fill-opacity="0.38"/>
<ellipse cx="294.439" cy="794.791" rx="1.06268" ry="1.29856" fill="white" fill-opacity="0.38"/>
<ellipse cx="296.564" cy="576.642" rx="1.06268" ry="1.29856" fill="white" fill-opacity="0.38"/>
<ellipse cx="553.734" cy="705.978" rx="1.06268" ry="1.29856" fill="white" fill-opacity="0.38"/>
<ellipse cx="408.359" cy="828.556" rx="1.06268" ry="1.29856" fill="white" fill-opacity="0.38"/>
<ellipse cx="563.935" cy="846.22" rx="1.06268" ry="1.29856" fill="white" fill-opacity="0.38"/>
<ellipse cx="501.875" cy="579.228" rx="1.06268" ry="1.29856" fill="white" fill-opacity="0.38"/>
<ellipse cx="389.23" cy="595.338" rx="1.06268" ry="1.29856" fill="white" fill-opacity="0.38"/>
<ellipse cx="111.657" cy="843.619" rx="1.06268" ry="1.29856" fill="white" fill-opacity="0.38"/>
<ellipse cx="90.4037" cy="550.666" rx="1.06268" ry="1.29856" fill="white" fill-opacity="0.38"/>
<ellipse cx="241.73" cy="717.924" rx="1.06268" ry="1.29856" fill="white" fill-opacity="0.38"/>
<ellipse cx="395.606" cy="715.322" rx="1.06268" ry="1.29856" fill="white" fill-opacity="0.38"/>
<ellipse cx="586.039" cy="535.603" rx="1.06268" ry="1.29856" fill="white" fill-opacity="0.38"/>
<ellipse cx="250.53" cy="616.103" rx="1.06268" ry="1.29856" fill="white" fill-opacity="0.38"/>
<ellipse cx="625.445" cy="654.541" rx="1.06268" ry="1.29856" fill="white" fill-opacity="0.38"/>
<ellipse cx="433.312" cy="707.517" rx="1.06268" ry="1.29856" fill="white" fill-opacity="0.38"/>
<ellipse cx="435.437" cy="489.369" rx="1.06268" ry="1.29856" fill="white" fill-opacity="0.38"/>
<ellipse cx="692.607" cy="618.705" rx="1.06268" ry="1.29856" fill="white" fill-opacity="0.38"/>
<ellipse cx="547.232" cy="741.283" rx="1.06268" ry="1.29856" fill="white" fill-opacity="0.38"/>
<ellipse cx="702.808" cy="758.947" rx="1.06268" ry="1.29856" fill="white" fill-opacity="0.38"/>
<ellipse cx="640.748" cy="491.955" rx="1.06268" ry="1.29856" fill="white" fill-opacity="0.38"/>
<ellipse cx="528.103" cy="508.064" rx="1.06268" ry="1.29856" fill="white" fill-opacity="0.38"/>
<ellipse cx="250.53" cy="756.345" rx="1.06268" ry="1.29856" fill="white" fill-opacity="0.38"/>
<ellipse cx="229.277" cy="463.392" rx="1.06268" ry="1.29856" fill="white" fill-opacity="0.38"/>
<ellipse cx="380.602" cy="630.65" rx="1.06268" ry="1.29856" fill="white" fill-opacity="0.38"/>
<ellipse cx="534.479" cy="628.049" rx="1.06268" ry="1.29856" fill="white" fill-opacity="0.38"/>
<ellipse cx="724.912" cy="448.33" rx="1.06268" ry="1.29856" fill="white" fill-opacity="0.38"/>
<ellipse cx="610.806" cy="749.916" rx="1.06268" ry="1.29856" fill="white" fill-opacity="0.09"/>
<ellipse cx="985.72" cy="788.353" rx="1.06268" ry="1.29856" fill="white" fill-opacity="0.09"/>
<ellipse cx="793.587" cy="841.33" rx="1.06268" ry="1.29856" fill="white" fill-opacity="0.09"/>
<ellipse cx="795.713" cy="623.181" rx="1.06268" ry="1.29856" fill="white" fill-opacity="0.09"/>
<ellipse cx="1052.88" cy="752.517" rx="1.06268" ry="1.29856" fill="white" fill-opacity="0.09"/>
<ellipse cx="907.507" cy="875.095" rx="1.06268" ry="1.29856" fill="white" fill-opacity="0.09"/>
<ellipse cx="1063.08" cy="892.76" rx="1.06268" ry="1.29856" fill="white" fill-opacity="0.09"/>
<ellipse cx="1001.02" cy="625.767" rx="1.06268" ry="1.29856" fill="white" fill-opacity="0.09"/>
<ellipse cx="888.378" cy="641.877" rx="1.06268" ry="1.29856" fill="white" fill-opacity="0.09"/>
<ellipse cx="610.806" cy="890.158" rx="1.06268" ry="1.29856" fill="white" fill-opacity="0.09"/>
<ellipse cx="589.552" cy="597.205" rx="1.06268" ry="1.29856" fill="white" fill-opacity="0.09"/>
<ellipse cx="740.878" cy="764.463" rx="1.06268" ry="1.29856" fill="white" fill-opacity="0.09"/>
<ellipse cx="894.755" cy="761.861" rx="1.06268" ry="1.29856" fill="white" fill-opacity="0.09"/>
<ellipse cx="1085.19" cy="582.142" rx="1.06268" ry="1.29856" fill="white" fill-opacity="0.09"/>
<ellipse cx="964.732" cy="815.861" rx="1.06268" ry="1.29856" fill="white" fill-opacity="0.38"/>
<ellipse cx="1339.65" cy="854.299" rx="1.06268" ry="1.29856" fill="white" fill-opacity="0.38"/>
<ellipse cx="1147.51" cy="907.275" rx="1.06268" ry="1.29856" fill="white" fill-opacity="0.38"/>
<ellipse cx="1149.64" cy="689.127" rx="1.06268" ry="1.29856" fill="white" fill-opacity="0.38"/>
<ellipse cx="1406.81" cy="818.463" rx="1.06268" ry="1.29856" fill="white" fill-opacity="0.38"/>
<ellipse cx="1261.43" cy="941.041" rx="1.06268" ry="1.29856" fill="white" fill-opacity="0.38"/>
<ellipse cx="1417.01" cy="958.705" rx="1.06268" ry="1.29856" fill="white" fill-opacity="0.38"/>
<ellipse cx="1354.95" cy="691.713" rx="1.06268" ry="1.29856" fill="white" fill-opacity="0.38"/>
<ellipse cx="1242.3" cy="707.822" rx="1.06268" ry="1.29856" fill="white" fill-opacity="0.38"/>
<ellipse cx="964.732" cy="956.103" rx="1.06268" ry="1.29856" fill="white" fill-opacity="0.38"/>
<ellipse cx="943.478" cy="663.15" rx="1.06268" ry="1.29856" fill="white" fill-opacity="0.38"/>
<ellipse cx="1094.8" cy="830.408" rx="1.06268" ry="1.29856" fill="white" fill-opacity="0.38"/>
<ellipse cx="1248.68" cy="827.806" rx="1.06268" ry="1.29856" fill="white" fill-opacity="0.38"/>
<ellipse cx="1439.11" cy="648.088" rx="1.06268" ry="1.29856" fill="white" fill-opacity="0.38"/>
<ellipse cx="943.422" cy="171.986" rx="1.06268" ry="1.29856" fill="white" fill-opacity="0.38"/>
<ellipse cx="1318.34" cy="210.424" rx="1.06268" ry="1.29856" fill="white" fill-opacity="0.38"/>
<ellipse cx="1126.2" cy="263.4" rx="1.06268" ry="1.29856" fill="white" fill-opacity="0.38"/>
<ellipse cx="1128.33" cy="45.2517" rx="1.06268" ry="1.29856" fill="white" fill-opacity="0.38"/>
<ellipse cx="1385.5" cy="174.588" rx="1.06268" ry="1.29856" fill="white" fill-opacity="0.38"/>
<ellipse cx="1240.12" cy="297.166" rx="1.06268" ry="1.29856" fill="white" fill-opacity="0.38"/>
<ellipse cx="1395.7" cy="314.83" rx="1.06268" ry="1.29856" fill="white" fill-opacity="0.38"/>
<ellipse cx="1333.64" cy="47.8376" rx="1.06268" ry="1.29856" fill="white" fill-opacity="0.38"/>
<ellipse cx="1221" cy="63.947" rx="1.06268" ry="1.29856" fill="white" fill-opacity="0.38"/>
<ellipse cx="943.422" cy="312.228" rx="1.06268" ry="1.29856" fill="white" fill-opacity="0.38"/>
<ellipse cx="922.168" cy="19.2751" rx="1.06268" ry="1.29856" fill="white" fill-opacity="0.38"/>
<ellipse cx="1073.49" cy="186.533" rx="1.06268" ry="1.29856" fill="white" fill-opacity="0.38"/>
<ellipse cx="1227.37" cy="183.931" rx="1.06268" ry="1.29856" fill="white" fill-opacity="0.38"/>
<ellipse cx="1417.8" cy="4.21262" rx="1.06268" ry="1.29856" fill="white" fill-opacity="0.38"/>
<ellipse cx="391.295" cy="169.072" rx="1.06268" ry="1.29856" fill="white" fill-opacity="0.38"/>
<ellipse cx="766.21" cy="207.509" rx="1.06268" ry="1.29856" fill="white" fill-opacity="0.38"/>
<ellipse cx="574.076" cy="260.486" rx="1.06268" ry="1.29856" fill="white" fill-opacity="0.38"/>
<ellipse cx="576.201" cy="42.3376" rx="1.06268" ry="1.29856" fill="white" fill-opacity="0.38"/>
<ellipse cx="833.371" cy="171.674" rx="1.06268" ry="1.29856" fill="white" fill-opacity="0.38"/>
<ellipse cx="687.996" cy="294.252" rx="1.06268" ry="1.29856" fill="white" fill-opacity="0.38"/>
<ellipse cx="843.573" cy="311.916" rx="1.06268" ry="1.29856" fill="white" fill-opacity="0.38"/>
<ellipse cx="781.512" cy="44.9236" rx="1.06268" ry="1.29856" fill="white" fill-opacity="0.38"/>
<ellipse cx="668.868" cy="61.0329" rx="1.06268" ry="1.29856" fill="white" fill-opacity="0.38"/>
<ellipse cx="391.295" cy="309.314" rx="1.06268" ry="1.29856" fill="white" fill-opacity="0.38"/>
<ellipse cx="370.041" cy="16.3611" rx="1.06268" ry="1.29856" fill="white" fill-opacity="0.38"/>
<ellipse cx="521.367" cy="183.619" rx="1.06268" ry="1.29856" fill="white" fill-opacity="0.38"/>
<ellipse cx="675.243" cy="181.017" rx="1.06268" ry="1.29856" fill="white" fill-opacity="0.38"/>
<ellipse cx="865.676" cy="1.29856" rx="1.06268" ry="1.29856" fill="white" fill-opacity="0.38"/>
<ellipse cx="144.194" cy="198.158" rx="1.06268" ry="1.29856" fill="white" fill-opacity="0.38"/>
<ellipse cx="519.108" cy="236.595" rx="1.06268" ry="1.29856" fill="white" fill-opacity="0.38"/>
<ellipse cx="326.974" cy="289.572" rx="1.06268" ry="1.29856" fill="white" fill-opacity="0.38"/>
<ellipse cx="329.1" cy="71.4236" rx="1.06268" ry="1.29856" fill="white" fill-opacity="0.38"/>
<ellipse cx="586.27" cy="200.759" rx="1.06268" ry="1.29856" fill="white" fill-opacity="0.38"/>
<ellipse cx="440.894" cy="323.338" rx="1.06268" ry="1.29856" fill="white" fill-opacity="0.38"/>
<ellipse cx="596.471" cy="341.002" rx="1.06268" ry="1.29856" fill="white" fill-opacity="0.38"/>
<ellipse cx="534.41" cy="74.0095" rx="1.06268" ry="1.29856" fill="white" fill-opacity="0.38"/>
<ellipse cx="421.766" cy="90.1189" rx="1.06268" ry="1.29856" fill="white" fill-opacity="0.38"/>
<ellipse cx="144.194" cy="338.4" rx="1.06268" ry="1.29856" fill="white" fill-opacity="0.38"/>
<ellipse cx="122.94" cy="45.447" rx="1.06268" ry="1.29856" fill="white" fill-opacity="0.38"/>
<ellipse cx="274.266" cy="212.705" rx="1.06268" ry="1.29856" fill="white" fill-opacity="0.38"/>
<ellipse cx="428.143" cy="210.103" rx="1.06268" ry="1.29856" fill="white" fill-opacity="0.38"/>
<ellipse cx="618.575" cy="30.3845" rx="1.06268" ry="1.29856" fill="white" fill-opacity="0.38"/>
<path d="M258.847 233.258C258.847 233.258 252.695 245.501 254.557 251.927C256.42 258.352 268.387 266.166 268.387 266.166C268.387 266.166 254.722 258.178 249.518 260.478C244.315 262.779 239.724 277.109 239.724 277.109C239.724 277.109 245.323 262.876 243.46 256.45C241.598 250.024 232.199 245.039 232.199 245.039C232.199 245.039 243.262 250.176 248.466 247.876C253.669 245.575 258.847 233.258 258.847 233.258Z" fill="#FBF2E7"/>
<path d="M1168.23 358.789C1168.23 358.789 1162.08 371.032 1163.94 377.458C1165.8 383.884 1177.77 391.697 1177.77 391.697C1177.77 391.697 1164.11 383.709 1158.9 386.01C1153.7 388.31 1149.11 402.641 1149.11 402.641C1149.11 402.641 1154.71 388.407 1152.84 381.981C1150.98 375.555 1141.58 370.57 1141.58 370.57C1141.58 370.57 1152.65 375.707 1157.85 373.407C1163.05 371.107 1168.23 358.789 1168.23 358.789Z" fill="white"/>
<path d="M269.899 703.031C269.899 703.031 263.746 715.274 265.609 721.7C267.472 728.126 279.439 735.939 279.439 735.939C279.439 735.939 265.774 727.952 260.57 730.252C255.367 732.552 250.776 746.883 250.776 746.883C250.776 746.883 256.375 732.649 254.512 726.223C252.649 719.798 243.25 714.812 243.25 714.812C243.25 714.812 254.314 719.95 259.518 717.649C264.721 715.349 269.899 703.031 269.899 703.031Z" fill="#A3988C"/>
</g>
</svg>
