<svg width="137" height="135" viewBox="0 0 137 135" fill="none" xmlns="http://www.w3.org/2000/svg">
<path d="M136.882 67.9523C136.882 69.5134 136.882 71.0744 136.698 72.6026C136.304 78.2358 135.178 83.7965 133.35 89.1501C133.359 89.2101 133.359 89.271 133.35 89.3309C132.552 91.6839 131.613 93.9884 130.537 96.2325C128.504 100.53 126.006 104.602 123.087 108.376C121.457 110.496 119.696 112.516 117.814 114.423C111.706 120.667 104.423 125.689 96.3678 129.212C91.3934 131.395 86.1642 132.968 80.7981 133.896C71.6596 135.516 62.2803 135.291 53.2333 133.235C44.1863 131.178 35.6614 127.332 28.1795 121.933C19.6823 115.778 12.74 107.789 7.8887 98.5824C7.01814 96.9392 6.21452 95.2137 5.51138 93.4719C2.10052 85.3807 0.348333 76.7088 0.354999 67.9523C0.354999 67.3607 0.354999 66.7692 0.354999 66.1776C0.354999 65.586 0.354999 65.2245 0.354999 64.7644V64.0249C0.354999 62.9897 0.505628 61.9709 0.622819 60.9356C0.622819 60.3605 0.740053 59.7689 0.823761 59.1774C0.907469 58.5858 0.974408 58.06 1.05812 57.5341C1.14182 57.0083 1.25902 56.4003 1.37621 55.8909C1.52688 54.9542 1.72778 54.034 1.94542 53.1138C2.07935 52.5386 2.23002 51.9635 2.36396 51.3884C2.88294 49.4001 3.50237 47.4446 4.18878 45.522L4.49017 44.7004C4.6241 44.3389 4.75803 43.9938 4.9087 43.6323C5.05938 43.2708 5.3272 42.597 5.54484 42.0876C5.76248 41.5782 5.98016 41.0852 6.21454 40.5923C7.58136 37.5975 9.17629 34.7081 10.9858 31.9488C11.1867 31.6366 11.3877 31.3243 11.6053 31.0121C11.823 30.6999 12.1578 30.1905 12.4424 29.7961C13.8565 27.7976 15.3823 25.8775 17.0128 24.0448C22.734 17.5889 29.6613 12.2676 37.4208 8.36819C47.0363 3.53255 57.689 1.01996 68.4931 1.03933C78.7329 1.01076 88.8465 3.25792 98.0754 7.61231C99.4315 8.23675 100.737 8.91049 102.026 9.63352C102.166 9.69481 102.3 9.76623 102.428 9.84715H102.579C110.814 14.5242 117.969 20.8308 123.59 28.3665C127.627 33.774 130.815 39.7451 133.049 46.0807C133.112 46.2994 133.19 46.5135 133.283 46.7215C133.283 46.9352 133.417 47.1488 133.501 47.3624C134.888 51.6137 135.841 55.9898 136.347 60.4262C136.481 61.6422 136.581 62.8747 136.648 64.1235C136.882 65.3888 136.882 66.6541 136.882 67.9523Z" fill="url(#paint0_radial_2707_724)"/>
<g style="mix-blend-mode:multiply" opacity="0.2">
<path d="M136.883 67.9683C136.883 69.5294 136.883 71.0904 136.699 72.6187C136.517 73.3675 136.142 74.0579 135.61 74.6234C134.616 75.4799 133.399 76.0488 132.095 76.2667C130.22 76.6775 128.261 76.8747 126.352 77.1376C124.029 77.4279 121.741 77.9453 119.522 78.6822C115.303 80.0889 111.181 81.7631 107.183 83.6942C102.981 85.7641 98.6339 87.5377 94.1751 89.0018C91.7978 89.7742 89.32 90.2507 86.926 90.9902C85.7876 91.3353 84.6491 91.5818 83.5777 91.8611C82.004 92.2226 80.4805 92.7156 78.9235 93.0771C76.8978 93.5372 74.939 94.1945 72.9133 94.6053C70.8876 95.0161 68.3931 95.9035 66.0995 96.2485C64.2847 96.5357 62.4442 96.6349 60.6083 96.5444C59.8047 96.5444 58.9341 96.3636 58.2142 96.3307C57.1428 96.2486 56.0545 96.3307 54.9998 96.1993C53.4501 96.1196 51.8961 96.1967 50.3624 96.4293C48.6337 96.6894 46.8779 96.7281 45.1391 96.5444C43.4344 96.2796 41.7547 95.8783 40.1166 95.3448C38.3841 94.8597 36.5942 94.6 34.7928 94.5725C34.0896 94.5725 33.4032 94.6875 32.7168 94.7532L30.5571 94.9175C29.4435 95.0213 28.3224 95.0213 27.2088 94.9175C25.5233 94.7301 23.8788 94.2808 22.337 93.5865C20.6198 92.8431 18.8227 92.2918 16.9798 91.9433C15.3541 91.4603 13.6482 91.2929 11.9573 91.4503C11.6727 91.4503 11.4216 91.4503 11.137 91.4503C10.8524 91.4503 10.4171 91.631 10.0655 91.6803C9.6245 91.6869 9.19025 91.7878 8.79312 91.9761C8.60307 92.1101 8.42399 92.2585 8.25743 92.4198C8.05653 92.5513 7.92257 92.7484 7.70493 92.8635C7.3961 92.9974 7.07702 93.1073 6.75065 93.1921C6.31446 93.3596 5.84228 93.4161 5.37788 93.3565C2.03012 85.297 0.323812 76.6718 0.355411 67.9683C0.355411 67.3767 0.355411 66.7852 0.355411 66.1936C0.355411 65.6021 0.355411 65.2405 0.355411 64.7804V64.0409C0.355411 63.0057 0.506041 61.9869 0.623231 60.9517C0.623231 60.3765 0.740465 59.7849 0.824173 59.1934C0.907881 58.6018 0.97482 58.076 1.05853 57.5501C1.14224 57.0243 1.25943 56.4163 1.37662 55.9069C1.5273 54.9702 1.72819 54.05 1.94583 53.1298C2.07976 52.5547 2.23044 51.9795 2.36437 51.4044C2.88336 49.4161 3.50279 47.4606 4.18919 45.538L4.49058 44.7164C4.62451 44.3549 4.75844 44.0098 4.90912 43.6483C5.05979 43.2868 5.32761 42.613 5.54525 42.1036C5.76289 41.5942 5.98057 41.1013 6.21496 40.6083C7.58177 37.6135 9.1767 34.7241 10.9863 31.9648C11.1872 31.6526 11.3881 31.3403 11.6057 31.0281C11.8234 30.7159 12.1582 30.2065 12.4428 29.8121C13.8569 27.8136 15.3827 25.8936 17.0132 24.0608C16.2373 25.3547 15.892 26.854 16.0255 28.3497C16.1085 28.7695 16.2434 29.1779 16.4273 29.5657C16.462 29.6227 16.4901 29.6833 16.511 29.7464C17.0635 28.9248 17.6159 28.1032 18.1852 27.2815C18.7544 26.4599 19.6752 25.1289 20.4955 24.1429C21.3158 23.157 22.0022 22.4997 22.7389 21.7274C22.99 21.448 23.6429 20.61 24.0782 20.6593C24.2288 21.1194 23.7935 21.7438 23.5926 22.1218C23.3918 22.4997 22.8728 23.2063 22.6384 23.765C22.6384 23.9786 22.4542 24.373 22.7723 24.3566C23.0904 24.3401 23.0904 24.1429 23.1574 24.1101C23.5257 23.8636 23.8605 23.5678 24.2288 23.2885C24.5972 23.0091 25.317 22.5654 25.903 22.1711C26.4889 21.7767 27.3595 21.1194 28.0794 20.5278C30.0549 19.1475 32.0639 17.685 34.1566 16.469C36.3625 15.1935 38.6371 14.036 40.9704 13.0017C42.2093 12.443 43.3979 11.8515 44.6536 11.3585C45.6057 10.994 46.5852 10.7029 47.5833 10.4876C48.4238 10.3359 49.2742 10.2426 50.128 10.2082C50.8331 10.1175 51.5431 10.0681 52.2542 10.0604C52.8737 10.0604 53.4763 9.94531 54.0958 9.94531C54.4584 9.9572 54.8182 10.0124 55.1673 10.1096C55.2677 10.1096 55.6527 10.1096 55.7197 10.2904C56.0545 10.7998 54.5646 10.7012 54.3469 10.7998C53.5116 11.3351 52.7517 11.976 52.0868 12.706C51.4506 13.2647 50.7977 13.7412 50.1783 14.3492C49.4931 14.8521 48.9228 15.4902 48.5041 16.2225C48.4036 16.5019 48.2195 16.9127 48.4036 17.192C48.5878 17.4714 49.0566 17.4549 49.3747 17.3892C50.3082 17.1909 51.2302 16.944 52.137 16.6497C53.2922 16.2882 54.4641 15.9596 55.6193 15.5323C56.5952 15.1529 57.6117 14.8828 58.6495 14.7272C59.6874 14.5957 60.7255 14.3821 61.7802 14.2671C62.3829 14.1635 62.9932 14.1086 63.605 14.1027C64.124 14.1027 64.6095 13.9548 65.1285 13.9548C66.066 13.9548 65.3796 14.9736 64.9108 15.2366C63.4491 16.2203 61.831 16.9588 60.1227 17.4221C58.1356 17.735 56.1724 18.1797 54.2465 18.7531C52.9072 19.2296 51.5176 19.624 50.195 20.1335C49.4751 20.4128 48.7552 20.725 48.0521 21.0208C47.0309 21.448 46.0766 21.9739 45.0721 22.4175C43.5347 23.173 42.067 24.0582 40.6858 25.0632C39.3632 25.9341 38.1243 26.92 36.852 27.8731C35.7189 28.7093 34.6553 29.6324 33.6711 30.6338C32.7534 31.5177 31.9998 32.552 31.4444 33.6902C30.805 34.9046 30.4019 36.2253 30.2558 37.5847C30.2577 38.1288 30.387 38.6652 30.6338 39.1524C30.8805 39.6396 31.2381 40.0647 31.6789 40.3946C32.6901 41.1273 33.8911 41.5657 35.1444 41.6599C36.007 41.6789 36.8696 41.6239 37.7225 41.4956C38.9383 41.159 40.1739 40.8955 41.4224 40.7069C42.7934 40.6082 44.1699 40.6082 45.5409 40.7069C47.1006 40.8506 48.6267 41.2389 50.0611 41.8571C51.4425 42.581 52.7635 43.4107 54.0121 44.3384C55.8103 45.5669 57.4913 46.953 59.0345 48.4794C59.9051 49.2846 60.7087 50.1227 61.596 50.9114C62.3147 51.4964 63.0635 52.0449 63.8394 52.5547C65.6112 53.6903 67.5715 54.5134 69.6319 54.9867C71.2606 55.4746 72.9889 55.5481 74.6544 55.2003C75.8765 54.8552 76.9648 54.2308 78.1869 53.9186C78.9309 53.754 79.703 53.754 80.447 53.9186C81.5966 54.1595 82.7707 54.2698 83.946 54.2472C84.5487 54.2472 85.1179 54.1651 85.7373 54.1158C86.3374 54.102 86.9361 54.1796 87.512 54.3458C87.9305 54.4444 88.5331 54.6909 87.9974 55.1346C87.4617 55.5782 86.1894 55.4632 85.4695 55.4632C84.184 55.4137 82.8965 55.4631 81.6189 55.6111C81.1836 55.6111 79.8443 55.874 79.7606 56.4656C79.6769 57.0572 81.5687 57.2051 81.937 57.1393C83.1089 56.9914 84.2808 56.8928 85.4527 56.8107C86.9015 56.8182 88.3467 56.9502 89.772 57.2051C91.1951 57.353 92.5846 57.7638 94.0244 57.8624C94.6413 57.8631 95.2554 57.7802 95.8492 57.6159C96.8281 57.4032 97.7949 57.1399 98.7455 56.8271C100.336 56.3506 101.876 55.7754 103.517 55.4468C104.93 55.1512 106.39 55.1512 107.803 55.4468L109.929 55.759C110.615 55.874 111.335 55.759 112.038 55.9233C114.063 56.0057 116.076 55.5935 117.898 54.7238C120.057 53.82 122.083 52.604 124.327 51.9138C125.746 51.5027 127.204 51.2384 128.679 51.125C129.027 51.0264 129.391 50.9929 129.751 51.0264C129.935 51.0264 130.086 51.1908 130.253 51.2401C130.722 51.388 130.806 51.0757 130.956 50.7142C131.157 50.4086 131.325 50.0837 131.459 49.7447C131.559 49.4161 131.659 49.0545 131.777 48.7095C131.894 48.3644 131.877 47.9043 132.028 47.5099C132.178 47.1155 132.748 46.1953 133.015 46.1625C133.183 46.1625 133.2 46.5568 133.216 46.8033C133.233 47.0498 133.216 46.9183 133.216 46.9676C133.233 47.1427 133.303 47.3089 133.417 47.4442C134.805 51.6955 135.758 56.0716 136.263 60.508C135.744 60.3436 135.225 60.1629 134.69 60.0315C134.154 59.9 133.133 59.7521 132.363 59.6206C131.592 59.4892 130.923 59.3084 130.203 59.2098C128.657 59.1121 127.109 59.371 125.683 59.9657C124.976 60.2081 124.288 60.4991 123.624 60.8366C122.987 61.1653 122.368 61.4939 121.715 61.7733C121.062 62.0526 120.359 62.3155 119.639 62.562C118.568 62.9235 117.597 63.4658 116.525 63.8273C114.886 64.5191 113.209 65.1225 111.503 65.6349C109.959 66.0559 108.378 66.331 106.781 66.4565C105.392 66.5387 103.986 66.1772 102.596 66.3579C102.044 66.3579 101.525 66.6044 100.922 66.703C100.467 66.8382 100.002 66.9426 99.5324 67.0152C98.779 67.0152 98.0591 67.0152 97.3057 67.1467C96.0836 67.2781 94.8615 67.3932 93.6394 67.4096C92.7149 67.4223 91.7921 67.4937 90.877 67.6232C90.0231 67.7383 89.2028 67.7711 88.3155 67.9026C87.472 68.0108 86.6488 68.2377 85.8713 68.5763C85.6536 68.6749 85.1012 68.9214 85.1514 69.2172C85.2016 69.513 85.4695 69.5623 85.6536 69.628C86.2586 69.8177 86.8965 69.8848 87.5287 69.8252C88.0607 69.8196 88.592 69.7811 89.1191 69.7101C89.8558 69.7101 90.5924 69.7101 91.3123 69.7101C93.6613 69.5148 96.027 69.7093 98.3102 70.2853C99.7262 70.6057 101.189 70.6725 102.63 70.4825C104.622 70.1867 106.53 69.5787 108.506 69.2665C111.988 68.7242 115.47 68.0833 118.902 67.3932C120.577 67.0809 122.167 66.5387 123.824 66.2429L126.051 65.8321C127.056 65.6349 128.11 65.602 129.131 65.4541C130.655 65.2405 132.128 64.7147 133.652 64.5339C134.589 64.4189 135.527 64.3039 136.447 64.2546C136.883 65.4048 136.883 66.6701 136.883 67.9683Z" fill="#470024"/>
</g>
<g style="mix-blend-mode:multiply" opacity="0.2">
<path d="M123.071 108.388C112.741 121.803 97.6427 130.908 80.7822 133.891V133.809C79.8447 132.856 78.8402 132.018 77.8357 131.131C76.7509 130.111 75.6048 129.157 74.4037 128.272C72.2142 126.786 69.9391 125.425 67.5898 124.196C65.1482 122.73 62.5626 121.507 59.872 120.548C58.4081 120.042 56.9156 119.62 55.402 119.283C53.5437 118.922 51.6016 118.839 49.7099 118.626C43.7035 117.867 37.5999 118.463 31.8633 120.368C30.6744 120.748 29.516 121.215 28.3979 121.764L28.1467 121.896C19.6496 115.741 12.7073 107.752 7.85596 98.5452C8.45589 98.3093 9.08745 98.1599 9.731 98.1016C10.2333 98.1016 10.7355 98.1016 11.2378 98.1016C12.1387 98.2208 13.0179 98.4642 13.8495 98.8246C16.0754 99.7659 18.495 100.182 20.9144 100.041C21.5304 99.9859 22.1407 99.8815 22.7392 99.7284C23.3084 99.5969 23.8274 99.3012 24.4134 99.2026C25.2268 99.1367 26.0443 99.1367 26.8576 99.2026C27.5087 99.2603 28.1531 99.3757 28.7829 99.5476C29.3856 99.6462 29.9716 99.6791 30.5575 99.7941C31.1721 99.9581 31.7992 100.073 32.4326 100.139C33.1214 100.131 33.8091 100.081 34.4918 99.9913C35.8365 99.8161 37.1565 99.4908 38.4261 99.0218C39.4041 98.7555 40.4091 98.5957 41.4228 98.5452C44.0225 98.4844 46.6063 98.9602 49.0067 99.942C50.4091 100.29 51.8466 100.483 53.2926 100.517C54.7826 100.632 56.2558 100.681 57.7625 100.665C60.0394 100.665 62.3665 100.386 64.6098 100.123C65.5306 100.024 66.4347 99.8927 67.3387 99.712C69.0129 99.3833 70.687 99.1368 72.3612 98.8246C76.5122 98.0456 80.6149 97.0362 84.6495 95.801C86.4073 95.2588 88.1317 94.5522 89.9064 94.0099C90.6417 93.7829 91.391 93.6017 92.1497 93.4676C92.8778 93.2295 93.665 93.2295 94.3931 93.4676C94.8451 93.6812 95.113 94.0428 94.8786 94.5358C94.6442 95.0287 93.8908 95.3902 93.4723 95.6532C92.8268 95.9719 92.1474 96.2198 91.4465 96.3926C90.1574 96.8198 88.8851 97.3293 87.596 97.7565C86.8259 98.003 86.0056 98.1345 85.2187 98.3152C84.296 98.5596 83.3901 98.8614 82.5066 99.219C81.7364 99.5148 81.0668 99.9913 80.2632 100.287C79.1917 100.682 78.0533 100.994 76.9149 101.405C74.2213 102.724 71.4216 103.823 68.5441 104.691C67.6066 104.905 66.6691 105.2 65.7315 105.513C65.313 105.628 64.6601 105.874 64.6601 106.449C64.6601 107.304 65.9324 107.6 66.5519 107.731C67.5229 107.961 68.4437 108.323 69.4147 108.536C70.0575 108.721 70.6756 108.981 71.2562 109.309C72.1199 109.757 73.0364 110.099 73.9851 110.327C76.1043 110.876 78.2893 111.142 80.4808 111.116C83.4943 111.001 86.4911 110.409 89.5213 110.574C90.8156 110.676 92.0951 110.913 93.3383 111.28C94.5772 111.593 95.7827 111.79 97.0383 111.987C100.302 112.414 103.604 112.48 106.882 112.184C109.199 112.01 111.502 111.698 113.78 111.248C115.37 111.057 116.935 110.705 118.451 110.196C119.154 109.9 119.874 109.769 120.56 109.44C120.995 109.243 121.364 109.062 121.799 108.898C122.208 108.693 122.633 108.522 123.071 108.388Z" fill="#470024"/>
</g>
<g style="mix-blend-mode:multiply" opacity="0.2">
<path d="M133.417 89.1562C132.591 91.5697 131.624 93.9344 130.521 96.2386L130.354 96.3208C129.533 96.7587 128.783 97.3124 128.127 97.9641C127.628 98.4286 127.064 98.8214 126.453 99.1308C126.034 99.328 125.649 99.6073 125.231 99.8045C124.812 100.002 124.343 100.297 123.908 100.544C123.203 100.986 122.542 101.492 121.933 102.056C121.698 102.253 121.514 102.483 121.263 102.68C121.012 102.877 120.878 102.943 120.694 103.107C120.51 103.272 119.991 103.765 119.605 104.077C118.782 104.688 117.896 105.211 116.96 105.638C116.354 105.9 115.727 106.115 115.085 106.279C114.382 106.493 113.679 106.673 112.976 106.854C112.273 107.035 111.586 107.265 110.9 107.478C110.14 107.703 109.361 107.863 108.573 107.955C107.334 108.136 106.112 108.086 104.873 108.349C104.237 108.481 103.617 108.678 102.964 108.826C102.311 108.974 101.742 109.171 101.106 109.253C100.023 109.401 98.9245 109.401 97.8415 109.253C97.4624 109.229 97.0821 109.229 96.7031 109.253C96.4687 109.253 96.2176 109.171 95.9664 109.171H95.5311C94.5021 109.056 93.4631 109.056 92.434 109.171C91.396 109.27 90.3245 109.319 89.2866 109.385C88.78 109.434 88.2696 109.434 87.7631 109.385C87.167 109.335 86.5678 109.335 85.9717 109.385C84.663 109.447 83.3511 109.387 82.0542 109.204C82.0705 108.727 82.2606 108.273 82.5899 107.922C82.6904 107.758 82.7071 107.643 82.8913 107.544C83.0961 107.445 83.3089 107.363 83.5275 107.298C83.6706 107.221 83.8223 107.16 83.9795 107.117C84.343 107.027 84.7121 106.962 85.0844 106.92C85.4808 106.822 85.8836 106.75 86.2898 106.706C86.7418 106.706 87.2273 106.706 87.6793 106.706H88.868C89.6249 106.754 90.3758 106.87 91.1114 107.051C91.8145 107.248 92.5344 107.478 93.2711 107.643C95.4621 108.441 97.8082 108.744 100.135 108.53C100.42 108.53 100.704 108.53 100.972 108.366C101.491 108.251 101.96 108.037 102.479 107.922C103.802 107.626 105.158 107.413 106.447 107.002C107.033 106.788 107.619 106.575 108.121 106.312C108.623 106.049 109.142 105.687 109.678 105.441C110.213 105.194 110.749 104.915 111.352 104.685L112.942 103.995C114.207 103.455 115.441 102.852 116.642 102.187C117.766 101.525 118.85 100.801 119.89 100.018C121.129 99.1308 122.284 98.1119 123.556 97.2574C124.474 96.659 125.424 96.1105 126.403 95.6142C127.061 95.3602 127.667 94.9929 128.194 94.5297C128.67 93.8766 129.106 93.1961 129.5 92.492C129.941 91.8039 130.509 91.2022 131.174 90.7174C131.509 90.4709 131.877 90.2737 132.212 90.0272C132.547 89.7807 133.015 89.452 133.417 89.1562Z" fill="#470024"/>
</g>
<g style="mix-blend-mode:multiply" opacity="0.2">
<path d="M111.2 13.5234C111.237 13.6301 111.265 13.7399 111.283 13.8514C111.15 13.9169 111.117 13.8677 111.2 13.5234Z" fill="#470024"/>
</g>
<g style="mix-blend-mode:multiply" opacity="0.2">
<path d="M128.511 35.7677C127.059 37.1385 125.355 38.2258 123.489 38.972C120.928 40.0073 118.098 39.7444 115.436 40.0402C114.917 40.0402 114.532 40.3524 114.063 40.4181C113.595 40.4838 113.076 40.3359 112.59 40.4181C111.438 40.6061 110.275 40.7268 109.108 40.7796C107.434 40.7796 106.011 41.1411 104.387 41.1411C102.632 41.3881 100.851 41.3881 99.0965 41.1411C99.2472 40.451 101.34 40.1223 101.976 39.8594C103.292 39.3455 104.695 39.078 106.111 39.0707C106.948 39.0707 107.668 38.7584 108.489 38.6927C109.309 38.627 109.928 38.7749 110.665 38.6927C111.402 38.6106 113.595 38.1176 113.36 36.9673C113.13 36.5628 112.842 36.1921 112.507 35.8663C112.104 35.5598 111.634 35.3514 111.134 35.2583C110.23 35.0612 109.61 35.1433 110.498 34.2066C111.067 33.5822 111.72 32.5634 110.498 32.2841C109.502 32.2204 108.505 32.3603 107.568 32.6949C107.066 32.777 106.613 32.6949 106.094 32.6949C105.576 32.6949 105.124 33.1386 104.655 33.2536C104.186 33.3686 103.433 33.2536 102.796 33.4179C102.174 33.5823 101.533 33.6706 100.888 33.6808C98.4436 33.6808 95.8654 35.3241 93.4044 34.6832L90.4077 34.0423C88.8401 33.9214 87.263 34.0491 85.7368 34.4203C83.8785 34.6668 82.0201 34.8475 80.1451 35.1269C79.0148 35.504 77.8068 35.6 76.6294 35.4062C77.0479 34.979 78.0859 34.9297 78.6719 34.7818C80.2288 34.371 81.8695 34.0752 83.4432 33.7794C85.0169 33.4836 86.9087 33.2536 88.6164 33.0564C89.7548 32.9085 90.9099 33.0564 91.9647 32.9414C95.109 32.543 98.1977 31.7989 101.173 30.723C103.968 29.5891 106.111 27.19 108.271 25.1031C109.509 24.0819 110.553 22.8521 111.351 21.4715C111.686 20.6562 111.971 19.8222 112.205 18.9738C112.381 18.0913 112.318 17.1789 112.021 16.3281C118.725 21.7222 124.321 28.3195 128.511 35.7677Z" fill="#470024"/>
</g>
<g style="mix-blend-mode:multiply" opacity="0.2">
<path d="M8.92737 40.3249C9.51565 38.7101 10.279 37.1621 11.2042 35.7074C11.494 35.4344 11.8077 35.187 12.1417 34.968C12.6105 34.5407 13.2634 33.3247 14.0168 33.3247C14.7701 33.3247 13.7824 34.7708 14.9376 34.705C16.0928 34.6393 17.0973 33.3575 18.0348 32.766C18.5298 32.4365 19.111 32.254 19.7089 32.2402C20.2279 32.3716 20.0605 32.5359 20.1442 33.0454C20.5707 32.9807 20.958 32.7643 21.2324 32.4374C21.9532 31.6217 22.8007 30.9229 23.7437 30.3669C24.2292 30.1039 26.2549 28.7236 26.9078 29.348C27.5607 29.9725 25.6857 32.0265 25.4513 32.3223C24.3371 33.737 23.554 35.3753 23.1577 37.1206C23.0067 38.4857 23.2811 39.8635 23.9447 41.0723C24.6083 42.281 25.6298 43.2638 26.8743 43.8908C27.4519 44.1925 28.0109 44.5272 28.5485 44.8931C29.3129 45.3304 30.1528 45.6257 31.0262 45.7641C32.9743 46.3941 34.959 46.9099 36.9695 47.3087C39.1058 47.5203 41.2626 47.4095 43.3648 46.9801C44.5794 46.6022 45.8834 46.6022 47.0981 46.9801C47.8551 47.4709 48.4902 48.1224 48.9564 48.8863C49.6684 49.5801 50.4807 50.1671 51.3672 50.6281C52.3885 51.3183 53.5604 51.7783 54.7155 52.3863C55.4187 52.7643 56.0046 53.2737 56.7077 53.6681C57.372 53.9634 57.9963 54.3388 58.5661 54.7855C59.0529 55.1316 59.4555 55.5794 59.745 56.0965C60.0345 56.6136 60.2036 57.1872 60.2402 57.7762C60.2402 58.5321 59.6208 58.5978 59.2357 59.1729C60.1565 59.8631 61.3619 59.9617 62.2827 60.5862C62.5506 60.7669 63.3542 61.112 63.237 61.5228C63.0361 62.2129 61.0104 62.0651 60.6588 62.0651C56.7078 62.0651 52.7233 61.95 48.7723 62.0651C47.382 62.1001 45.9978 62.2596 44.6371 62.5416C44.3858 62.5577 44.1409 62.6261 43.9187 62.7423C43.6964 62.8584 43.5019 63.0197 43.348 63.2153C44.0444 63.6993 44.8722 63.9682 45.7253 63.9876C47.751 64.2341 49.7433 64.7435 51.769 65.0229C53.7947 65.3022 55.4187 66.1403 57.3105 66.584C58.0638 66.7648 58.8005 67.0277 59.5706 67.192C60.5672 67.3564 61.574 67.4552 62.584 67.4878C66.6857 67.8493 70.8376 66.8962 74.9728 66.9126C76.5165 66.9348 78.06 66.858 79.5935 66.6826C80.9503 66.4961 82.2813 66.1598 83.5612 65.6802C84.3648 65.4008 85.2354 65.2858 85.972 65.0558C86.7086 64.8257 87.5625 64.4642 88.3996 64.2835C89.8493 63.9143 91.3386 63.7157 92.8361 63.6919C94.1586 63.6919 95.431 64.0369 96.7536 63.9383C98.8463 63.774 100.705 62.9524 102.764 62.6731C106.488 62.1361 110.131 61.1538 113.612 59.7481C114.995 59.2633 116.435 58.9541 117.898 58.8279C118.3 58.8279 118.668 58.5814 119.07 58.5321C119.472 58.4828 119.773 58.5321 120.142 58.5321C120.891 58.2932 121.601 57.9502 122.251 57.5133C123.175 56.8391 124.142 56.2243 125.147 55.6728C126.235 55.2291 127.458 54.9827 128.496 54.6047C128.931 54.4733 129.366 54.2761 129.801 54.1282C130.237 53.9803 130.555 54.1282 130.789 53.8488C129.941 54.4088 129.001 54.8202 128.01 55.0648C127.057 55.4229 126.156 55.9037 125.331 56.4944C124.879 56.9637 124.38 57.3875 123.841 57.7598C122.691 58.6368 121.416 59.3453 120.058 59.8631C117.764 60.4711 115.588 61.5064 113.361 62.0158C111.135 62.5252 108.657 62.9524 106.33 63.4454C101.387 64.5324 96.3841 65.3334 91.346 65.8445C89.3309 66.0304 87.333 66.3655 85.3693 66.8469C84.5992 67.0277 83.9965 67.4878 83.2264 67.6685C82.4563 67.8493 81.3513 68.2272 80.4138 68.523C78.5053 69.1639 76.6135 69.7061 74.7384 70.4127C73.7507 70.7907 72.043 70.7907 71.6747 71.9574C72.4202 72.3222 73.2669 72.4377 74.0855 72.2861C74.7203 72.3436 75.3592 72.3436 75.9941 72.2861C76.7582 72.087 77.5032 71.8231 78.2207 71.4973C78.9071 71.2015 79.56 70.9386 80.2799 70.6921C80.9998 70.4456 81.2844 70.1334 82.0545 70.1334C82.4872 70.1994 82.9276 70.1994 83.3603 70.1334C83.7454 70.0184 83.9631 69.8048 84.4318 69.9691C84.2477 70.3635 83.4105 70.6757 83.0255 70.8728C82.6404 71.07 81.9875 71.1522 81.502 71.5959C81.0165 72.0396 80.7487 72.3189 81.502 72.6969C82.4781 72.987 83.5088 73.0544 84.5155 72.8941C87.462 72.8119 90.3081 71.5959 93.2881 72.2039C94.9622 72.5325 96.6364 72.9434 98.3105 73.2227C100.354 73.5402 102.43 73.5954 104.488 73.387C106.514 73.1405 108.489 72.5325 110.549 72.3354C111.637 72.2368 112.775 71.941 113.897 71.7438L118.166 71.0043C119.941 70.6757 121.732 70.2649 123.507 69.9691C124.863 69.7555 126.252 69.6733 127.625 69.4432C128.053 69.3937 128.486 69.3937 128.914 69.4432C129.4 69.4432 129.249 69.5747 129.567 69.6569C130.01 69.761 130.447 69.8928 130.873 70.0512C131.308 70.232 132.128 70.1663 132.229 70.725C129.182 72.8283 124.913 73.0419 121.447 74.0115C119.087 74.6523 116.776 75.4575 114.449 76.1805C111.687 77.035 108.908 77.8238 106.079 78.6454C103.249 79.467 100.922 80.453 98.3273 81.291C96.2011 81.9812 94.1419 82.8193 91.9822 83.4273C90.8773 83.7395 89.8895 84.2489 88.8013 84.594C87.7131 84.939 86.6752 85.202 85.6037 85.5964C84.7097 85.9089 83.7987 86.1722 82.8748 86.3851C81.6694 86.6973 80.598 87.1903 79.4261 87.5847C78.2541 87.9791 76.9818 88.1434 75.8099 88.6035C74.8945 89.0041 73.9553 89.3498 72.9973 89.6387C71.4403 90.0495 69.9001 90.411 68.3431 90.7561C67.2382 91.019 66.1835 91.512 65.0785 91.7092C63.8271 91.9083 62.5626 92.0181 61.295 92.0379C60.0896 92.0379 58.9511 92.3172 57.729 92.3008C56.7089 92.2349 55.6855 92.2349 54.6653 92.3008C52.9983 92.4874 51.32 92.5588 49.6429 92.5144H47.7343C47.0304 92.6296 46.312 92.6296 45.6081 92.5144C45.7086 92.2844 46.8135 92.1693 47.1986 92.1036C47.9277 92.0295 48.6626 92.0295 49.3917 92.1036C50.1607 92.1611 50.933 92.1611 51.702 92.1036C52.5726 91.9886 53.4934 92.005 54.3639 91.8407C55.6574 91.6209 56.9374 91.3301 58.1978 90.9698C58.9344 90.7561 59.4869 90.3125 60.19 90.0495C60.7846 89.8889 61.3884 89.7627 61.9981 89.6716C62.9691 89.4415 63.8899 89.2772 64.8944 89.1293C65.4301 89.1293 65.9993 89.1293 66.5685 89.0143C67.4345 88.8447 68.2813 88.5916 69.0965 88.2584C70.5531 87.7654 71.9091 87.2396 73.3154 86.6152C74.082 86.3504 74.7636 85.8912 75.2909 85.2841C76.2786 83.9202 73.9181 84.1832 73.1982 84.3639C71.1972 85.0215 69.1413 85.5054 67.0541 85.8099C66.1333 85.8099 65.2627 86.0236 64.3252 86.0729C63.3877 86.1222 62.0818 86.3687 60.8931 86.3522C59.7045 86.3358 58.767 86.5987 57.6788 86.6316C56.1553 86.6316 54.6151 86.8288 53.0916 86.9602C51.5681 87.0917 49.7433 87.4532 47.9854 87.6504C46.7131 87.7983 45.4574 87.8312 44.1683 88.0119C42.2933 88.2584 40.502 88.7514 38.6436 89.1129C37.6057 89.3101 36.5844 89.6059 35.5632 89.8031C34.445 89.9366 33.3115 89.8754 32.2149 89.6223C30.3733 89.3101 28.515 89.1786 26.6734 88.7185C24.1358 88.0454 21.803 86.7765 19.8763 85.0212C18.0644 83.339 15.7769 82.2335 13.3137 81.8498C11.3709 81.6052 9.39659 81.8424 7.57131 82.5399C6.16195 83.0136 4.67234 83.2146 3.18503 83.1315C1.39368 83.0493 2.33118 81.4882 2.36466 80.3873C2.44837 77.3472 2.36466 74.3237 2.68275 71.3001C2.7832 70.2977 3.77098 61.1613 5.32795 61.9172C5.47889 62.6437 5.57956 63.3793 5.62928 64.1191C5.62928 64.7271 6.19851 65.0558 6.26547 65.6309C6.70075 65.6309 7.13601 63.8233 7.23646 63.4289C7.57129 62.0322 7.95637 60.6355 8.25772 59.2058C8.65257 57.4205 8.78223 55.5884 8.64274 53.7667C8.63966 53.072 8.46136 52.3889 8.12376 51.7783C7.78893 51.3347 7.57128 51.4169 7.01881 51.4004C6.06454 51.4004 5.64599 50.3652 5.64599 49.5271C5.66451 48.1351 5.96623 46.7607 6.53334 45.4847C7.03559 44.2687 7.67176 43.102 8.0903 41.8531C8.20749 41.3601 8.69299 40.1277 8.92737 40.3249Z" fill="#470024"/>
</g>
<g style="mix-blend-mode:multiply" opacity="0.2">
<path d="M117.797 114.429C111.689 120.672 104.406 125.694 96.3512 129.218C95.0998 128.768 93.8036 128.448 92.4839 128.265C91.6803 128.265 90.0564 128.265 89.437 127.542C88.8175 126.819 90.4916 126.737 91.0274 126.638C91.5631 126.539 92.8355 126.638 93.0364 125.866C93.5051 124.222 87.4782 123.598 86.457 123.352C84.6532 123.014 82.8181 122.866 80.9824 122.908C79.884 122.871 78.7964 122.683 77.7513 122.349C76.7468 122.037 75.7424 121.84 74.7379 121.544C72.7442 120.938 70.6991 120.509 68.6272 120.262C68.2924 120.262 65.982 120.065 65.915 119.736C67.0314 119.354 68.1798 119.068 69.3471 118.882C69.7991 118.8 69.9833 118.981 70.3348 119.063C70.6864 119.145 71.2891 119.194 71.7913 119.326C76.5694 120.365 81.4707 120.752 86.3565 120.476C87.0094 120.476 87.5619 120.229 88.1981 120.197C88.8343 120.164 89.2193 120.197 89.7383 120.197C91.3572 120.206 92.9693 119.99 94.5264 119.556C95.916 119.194 97.4227 118.997 98.7787 118.603C99.1973 118.471 100.62 118.323 100.671 117.83C99.855 117.707 99.025 117.707 98.2095 117.83C96.9913 117.869 95.7719 117.825 94.5599 117.699C93.1201 117.502 91.6971 117.534 90.2573 117.354C89.3307 117.378 88.4152 117.151 87.6121 116.696C88.0139 116.154 89.1524 116.056 89.7551 115.941C91.0609 115.727 92.3835 115.595 93.6893 115.415C97.0376 114.971 100.285 114.79 103.6 114.642C105.392 114.56 107.2 114.248 108.991 114.314C110.381 114.314 111.72 114.626 113.109 114.61C114.164 114.61 115.236 114.61 116.29 114.61C116.798 114.599 117.302 114.539 117.797 114.429Z" fill="#470024"/>
</g>
<g style="mix-blend-mode:screen" opacity="0.5">
<path d="M35.2276 49.616C35.0267 50.6676 34.5077 51.9494 35.0769 52.9847C35.382 53.456 35.8431 53.81 36.3828 53.987C37.8387 54.8221 39.5262 55.1844 41.2043 55.0223C42.5529 54.8853 43.87 54.5357 45.1051 53.987C45.9066 53.4223 46.453 52.5737 46.6286 51.6207C46.8119 51.2068 46.8437 50.7434 46.7186 50.3092C46.5935 49.8749 46.3191 49.4965 45.9422 49.2381C45.7176 49.0856 45.4827 48.9483 45.2391 48.8272C44.8337 48.7216 44.4187 48.6556 44.0002 48.6301C43.0824 48.5395 42.1598 48.5066 41.2378 48.5315H39.346C38.7772 48.569 38.2151 48.6738 37.6718 48.8436C36.7845 49.0737 35.7298 49.0244 35.2276 49.616Z" fill="#B83138"/>
<path d="M47.2812 53.1901C47.7094 52.7435 48.1931 52.3515 48.721 52.0234C49.0391 52.2699 49.5581 52.3192 49.7255 52.73C49.8271 52.8817 49.8711 53.0636 49.8497 53.2439C49.8282 53.4242 49.7428 53.5914 49.6083 53.716C49.4751 53.8698 49.3025 53.986 49.1082 54.0524C48.914 54.1189 48.7051 54.1332 48.5034 54.0939C48.0848 53.9953 47.4821 53.8145 47.4152 53.3216L47.2812 53.1901Z" fill="#B83138"/>
<path d="M42.7609 55.9256C43.3923 55.5765 44.0602 55.2955 44.7532 55.0875C45.1047 55.0054 45.4061 54.8082 45.7577 54.726C46.1038 54.6446 46.4569 54.5951 46.8124 54.5781C47.2644 54.5781 47.482 54.5781 47.8168 54.8574C48.0625 55.1028 48.2814 55.3727 48.4698 55.6627C48.5981 55.8003 48.6909 55.9662 48.7404 56.1463C48.7899 56.3264 48.7947 56.5156 48.7544 56.6979C48.6054 57.2192 48.323 57.6944 47.934 58.0782C47.3098 58.6686 46.5611 59.1173 45.7409 59.3928C44.8529 59.8209 43.8834 60.0616 42.8948 60.0994C42.4086 60.0114 41.9279 59.8962 41.4551 59.7543C40.7519 59.59 40.032 59.59 39.3122 59.4586C38.5923 59.3271 37.638 58.9163 37.9226 58.0125C38.1799 57.5451 38.5432 57.142 38.9844 56.8343C39.4256 56.5266 39.933 56.3225 40.4673 56.2378L41.7062 56.0242C42.0541 55.9607 42.4071 55.9278 42.7609 55.9256Z" fill="#B83138"/>
<path d="M50.9642 54.4531C50.5844 54.8954 50.3303 55.4282 50.2275 55.9978C50.395 55.9978 50.4787 56.08 50.6628 56.08C50.7818 56.0666 50.8962 56.0273 50.9977 55.9649C51.3158 55.8663 51.5501 55.8171 51.6506 55.472C51.7357 55.2552 51.7357 55.015 51.6506 54.7982C51.4275 54.6316 51.1706 54.5139 50.8972 54.4531H50.9642Z" fill="#B83138"/>
<path d="M58.4978 68.8308C56.1524 68.4692 53.7881 68.2387 51.4161 68.1406C48.7402 68.2019 46.1631 69.1454 44.1 70.8191C43.2629 71.5257 42.3087 72.2159 42.3254 73.399C42.3455 73.7911 42.4647 74.1722 42.6722 74.5078C42.8797 74.8434 43.169 75.1231 43.5141 75.3217C44.6363 76.0338 45.8862 76.53 47.1972 76.7841C48.4556 77.1538 49.7438 77.4177 51.0478 77.5729C52.249 77.7126 53.4628 77.7126 54.664 77.5729C55.9202 77.3707 57.1576 77.0685 58.3639 76.6691C59.3786 76.4588 60.2922 75.9208 60.9588 75.1409C61.3113 74.612 61.5082 73.9979 61.528 73.3662C61.6404 72.7439 61.6195 72.1055 61.4668 71.4916C61.314 70.8776 61.0327 70.3017 60.6407 69.8003C60.3794 69.4925 60.0515 69.2458 59.6808 69.0781C59.3101 68.9104 58.9059 68.8259 58.4978 68.8308Z" fill="#B83138"/>
<path d="M64.5244 68.9777C64.7122 69.569 65.001 70.1246 65.3782 70.621C65.6796 70.3416 66.4497 70.506 66.8348 70.506C67.178 70.4864 67.5192 70.4425 67.856 70.3745C68.4252 70.2759 69.1786 70.2102 69.1953 69.5036C69.2121 68.797 68.1741 68.4848 67.5212 68.4848C66.5669 68.4848 65.5457 68.2876 64.8425 69.0271L64.5244 68.9777Z" fill="#B83138"/>
<path d="M43.7155 78.401C44.6195 78.5215 45.5236 78.6201 46.4276 78.6967C47.3301 78.7341 48.227 78.8552 49.1063 79.0583C49.6755 79.2226 50.0605 79.3048 50.3619 79.8142C50.6632 80.3236 50.6297 80.2414 50.4958 80.5372C50.2269 80.9484 49.8074 81.2425 49.3239 81.3588C48.6394 81.6539 47.9345 81.901 47.2145 82.0983C45.7174 82.5331 44.1707 82.7816 42.6105 82.8378C42.2076 82.8413 41.8099 82.7489 41.4513 82.5686C41.0927 82.3883 40.7838 82.1255 40.5513 81.8025C40.3574 81.4948 40.2437 81.1448 40.2203 80.7837C40.197 80.4226 40.2647 80.0613 40.4174 79.732C40.5987 79.3292 40.8973 78.988 41.2756 78.7512C41.6538 78.5143 42.095 78.3925 42.5435 78.401C42.8726 78.3869 43.2017 78.4315 43.5146 78.5325C43.7322 78.5982 44.1173 78.6146 43.7155 78.401Z" fill="#B83138"/>
<path d="M5.07506 75.2896C4.87755 76.6281 4.78797 77.9797 4.80719 79.332C4.79182 79.6092 4.84828 79.8857 4.97124 80.1357C5.0942 80.3857 5.27966 80.601 5.51035 80.7616C6.17507 81.0321 6.91499 81.067 7.60305 80.8602C8.4543 80.5437 9.25925 80.1182 9.99708 79.5949C10.4841 79.2431 10.9036 78.8091 11.236 78.3132C11.8307 77.5011 12.2155 76.5593 12.3576 75.569C12.5499 74.445 12.5837 73.3004 12.4581 72.1674C12.2977 71.0876 11.9643 70.0394 11.4703 69.0617C11.3348 68.6047 11.0381 68.21 10.6333 67.9481C10.2284 67.6861 9.74174 67.5741 9.26045 67.6321C8.40579 67.8161 7.5901 68.1441 6.84966 68.6016C6.34633 68.9198 5.93656 69.3617 5.66102 69.8834C5.41755 70.3645 5.23216 70.8718 5.10857 71.3951C4.99516 71.8393 4.90574 72.2891 4.8407 72.7426C4.66244 73.5958 4.74393 74.4816 5.07506 75.2896Z" fill="#B83138"/>
<path d="M8.92623 64.7973C8.77555 64.1729 8.40721 63.2855 8.69182 62.694C8.69182 62.5954 8.85926 62.431 8.92623 62.316C8.98 62.2041 9.05931 62.1058 9.15803 62.0289C9.25674 61.952 9.3722 61.8984 9.49543 61.8723C10.1484 61.7573 10.7343 62.431 10.8515 62.9733C11.0284 63.5626 10.9746 64.1956 10.7008 64.748C10.4832 65.0602 9.6461 65.4382 9.32801 65.0766L8.92623 64.7973Z" fill="#B83138"/>
<path d="M10.4325 59.4188C10.2818 57.6769 9.6456 55.59 10.8343 54.0454C11.2193 53.5196 11.8723 52.7144 12.6424 52.813C13.1111 52.813 13.5632 53.3881 13.8478 53.7167C14.2966 54.2336 14.6276 54.8387 14.8187 55.4915C15.0416 56.0155 15.1827 56.5694 15.2373 57.1347C15.2332 57.8188 15.1086 58.4971 14.869 59.1395C14.7254 59.5785 14.4821 59.9798 14.1572 60.3129C13.8324 60.646 13.4346 60.9021 12.9939 61.062C12.6945 61.1394 12.3812 61.15 12.077 61.0932C11.7729 61.0363 11.4856 60.9134 11.2361 60.7334C11.0097 60.5881 10.8198 60.3943 10.6806 60.1666C10.5414 59.9389 10.4566 59.6832 10.4325 59.4188Z" fill="#B83138"/>
<path d="M9.19402 50.9754C9.31317 51.5668 9.55849 52.1269 9.91389 52.6186C10.0813 52.4872 10.3324 52.5036 10.5333 52.4214C10.7898 52.3135 11.0102 52.137 11.1695 51.912C11.2726 51.765 11.3424 51.598 11.3741 51.4222C11.4059 51.2465 11.3989 51.0661 11.3536 50.8932C11.2532 50.5646 10.7007 50.1866 10.4161 49.9894C9.83017 49.5622 9.4786 50.0716 9.06006 50.4988L9.19402 50.9754Z" fill="#B83138"/>
<path d="M72.0747 77.5764C72.8002 77.1578 73.569 76.8163 74.3682 76.5576C74.8503 76.4345 75.3253 76.2864 75.7913 76.1139C76.9876 75.8228 78.2099 75.6467 79.4409 75.5881C80.1106 75.5881 80.7635 75.588 81.4499 75.4237L82.9232 75.1936C84.3964 74.9965 85.8362 74.5692 87.3262 74.372C88.0293 74.2734 88.766 74.1091 89.4691 74.0762C89.9211 74.0762 90.3732 73.9448 90.8252 73.9448C91.679 73.9448 92.4994 73.8133 93.3699 73.7969C96.5373 74.0266 99.652 74.7189 102.611 75.8509C103.314 76.0481 104.018 76.2125 104.721 76.3439C105.692 76.6263 106.711 76.7156 107.717 76.6069C108.722 76.3604 108.387 75.358 107.717 74.9636C106.928 74.4747 106.005 74.2339 105.072 74.2734C104.516 74.2185 103.955 74.2185 103.398 74.2734C102.611 74.4049 101.322 74.6678 101.138 75.6045C101.104 75.9323 101.104 76.2626 101.138 76.5904C101.163 76.8033 101.163 77.0184 101.138 77.2313C100.873 78.015 100.317 78.672 99.581 79.0717C99.2295 79.2854 98.8779 79.4004 98.5431 79.6304C98.1489 79.8867 97.7346 80.112 97.3042 80.3042C96.6512 80.6492 95.9983 80.9121 95.3454 81.2572C94.9035 81.4565 94.4508 81.6321 93.9894 81.7831C92.7525 82.3328 91.4768 82.7941 90.1723 83.1634C89.1343 83.4263 88.1633 83.87 87.1085 84.1001C86.4891 84.2479 85.9534 84.5437 85.4344 84.7409C85.1602 84.8381 84.8807 84.9204 84.5973 84.9874C84.1286 85.0695 83.7268 85.2832 83.2748 85.3818C81.6768 85.9362 80.02 86.311 78.336 86.4992C77.5994 86.4992 77.1641 86.4992 76.7623 85.8254C76.3777 85.2185 76.0579 84.5742 75.808 83.9029C75.5889 83.1482 75.102 82.4953 74.4352 82.0624C73.6484 81.6187 72.761 81.5202 71.9909 81.0107C71.6693 80.7818 71.4128 80.4759 71.2458 80.1221C71.0787 79.7683 71.0068 79.3784 71.0367 78.9895C70.9997 78.6998 71.0583 78.4061 71.2041 78.1515C71.4417 77.8925 71.7407 77.6949 72.0747 77.5764Z" fill="#B83138"/>
<path d="M107.685 73.6779C108.259 73.5948 108.821 73.4459 109.359 73.2342L109.627 73.1356C109.878 73.111 110.13 73.111 110.38 73.1356C110.665 73.1356 111.167 73.1356 111.418 73.2506C111.67 73.3657 111.418 74.023 111.1 74.3023C110.863 74.444 110.602 74.5441 110.33 74.5981C110.23 74.5981 110.113 74.5981 109.995 74.5981C109.878 74.5981 109.728 74.746 109.594 74.7624C109.418 74.723 109.245 74.6736 109.075 74.6145C108.894 74.588 108.718 74.5325 108.556 74.4502C108.254 74.253 108.321 73.8422 108.07 73.6614L107.685 73.6779Z" fill="#B83138"/>
<path d="M54.2618 106.184C52.5095 106.196 50.7862 106.624 49.2394 107.432C48.6524 107.845 48.1233 108.331 47.6657 108.879C46.611 110.16 48.9883 110.341 49.8756 110.522C51.6519 110.723 53.3889 111.177 55.0319 111.869C56.4416 112.598 58.0792 112.78 59.6192 112.379C60.6404 112.05 61.4942 111.836 61.9462 110.735C62.1182 110.278 62.1292 109.777 61.9775 109.312C61.8258 108.848 61.5201 108.446 61.1091 108.172C60.1418 107.354 59.0662 106.669 57.9115 106.134C56.6914 105.627 55.3282 105.557 54.061 105.937L54.2618 106.184Z" fill="#B83138"/>
<path d="M51.4 103.813C51.0443 104.011 50.7129 104.248 50.4122 104.52C50.3651 104.569 50.3389 104.633 50.3389 104.7C50.3389 104.768 50.3651 104.832 50.4122 104.881C50.8586 105.138 51.3683 105.269 51.8855 105.259C52.2218 105.243 52.5571 105.211 52.89 105.161C53.09 105.186 53.2926 105.186 53.4927 105.161C53.8609 105.084 54.2088 104.933 54.5139 104.717C54.765 104.536 54.7316 104.224 54.7148 103.961C54.7096 103.804 54.6577 103.652 54.5655 103.523C54.4733 103.395 54.3447 103.296 54.1958 103.238C53.6923 103.102 53.164 103.081 52.6506 103.175C52.1373 103.268 51.6524 103.476 51.2326 103.78L51.4 103.813Z" fill="#B83138"/>
<path d="M42.8105 110.953C43.3036 110.881 43.8024 110.853 44.3005 110.871L45.0539 111.084C45.7905 111.232 46.5271 111.347 47.247 111.512C47.4739 111.535 47.6934 111.605 47.8921 111.715C48.0907 111.825 48.2643 111.974 48.4022 112.152C48.6198 112.415 48.7705 112.563 48.7035 112.941C48.4692 114.404 46.7616 114.765 45.5059 114.913C44.5186 115.009 43.5229 114.981 42.5427 114.831C41.4712 114.683 40.383 114.584 39.3283 114.354C38.5582 114.206 37.788 114.059 37.0347 113.845C36.7854 113.816 36.5446 113.738 36.3262 113.617C36.1077 113.496 35.9161 113.333 35.7623 113.138C35.6524 112.973 35.5801 112.786 35.5502 112.59C35.5203 112.394 35.5336 112.195 35.5892 112.005C35.6448 111.815 35.7413 111.638 35.8722 111.488C36.0032 111.338 36.1656 111.217 36.3483 111.134C37.5616 110.606 38.9034 110.429 40.2156 110.624C40.6815 110.697 41.1509 110.746 41.6219 110.772C42.0142 110.855 42.411 110.915 42.8105 110.953Z" fill="#B83138"/>
</g>
<g style="mix-blend-mode:multiply" opacity="0.2">
<path d="M74.2525 35.6292C73.5495 36.0345 72.7565 36.2657 71.9421 36.3029C71.5236 36.3029 71.0884 36.2043 70.6698 36.1386L68.7445 35.7606C68.0821 35.6423 67.4081 35.5982 66.7355 35.6292C65.5301 35.6292 64.3415 35.7606 63.1361 35.7606C62.0724 35.7692 61.0094 35.7033 59.9552 35.5635C58.9842 35.4156 58.0634 35.1362 57.1091 34.9226C56.7241 34.8405 56.3558 34.6926 55.954 34.6104C55.5522 34.5282 55.0164 34.6104 54.5309 34.4789C53.6113 34.4159 52.6986 34.2785 51.802 34.0681C51.4852 33.9975 51.202 33.8238 50.9985 33.5751C50.9148 33.4601 50.7641 33.0986 50.8478 32.9672C50.9315 32.8357 51.8188 32.8028 52.0699 32.885C52.8835 33.127 53.6647 33.4635 54.397 33.8874C55.7029 34.6433 57.444 34.1503 58.8837 34.3803C59.5032 34.4789 60.1226 34.3803 60.742 34.3803C61.3615 34.3803 61.4619 34.7254 61.8637 34.8569C62.3326 34.957 62.8179 34.957 63.2868 34.8569C64.4114 34.7168 65.507 34.4063 66.5346 33.9367C67.6779 33.3271 68.9379 32.9577 70.2345 32.8521C71.315 32.7938 72.3983 32.8934 73.4489 33.1479C73.7608 33.2021 74.0507 33.342 74.2848 33.5515C74.5189 33.7609 74.6876 34.0312 74.7715 34.331C74.9389 34.9883 74.4701 35.1855 74.2525 35.6292Z" fill="#470024"/>
</g>
<g style="mix-blend-mode:multiply" opacity="0.2">
<path d="M69.9159 14.7991C70.3983 14.7959 70.8801 14.8344 71.3556 14.9141C70.9706 14.9141 70.5688 15.0128 70.1837 15.0949C69.9254 15.153 69.6618 15.186 69.3969 15.1935C69.1625 15.1935 67.9738 15.3085 68.4258 14.9141C68.8779 14.5198 69.6313 14.7991 69.9159 14.7991Z" fill="#470024"/>
</g>
<g style="mix-blend-mode:multiply" opacity="0.2">
<path d="M102.764 9.81616C102.142 10.8613 101.413 11.8414 100.588 12.7412C99.7956 13.5306 98.88 14.1907 97.8756 14.6966C96.6566 15.3587 95.3572 15.8667 94.0083 16.2084C92.6325 16.5631 91.2254 16.7887 89.8061 16.8821C88.7472 16.8656 87.6903 16.7832 86.642 16.6357C85.3361 16.5042 83.9968 16.3563 82.691 16.1756C81.6697 16.0277 80.6485 15.8962 79.6105 15.7811C78.5726 15.6661 77.5848 15.3703 76.5636 15.2717C75.8269 15.2717 75.0736 15.1567 74.337 15.1403C73.8849 15.1403 73.4831 14.9924 73.0311 14.9924C72.7355 15.0088 72.4393 15.0088 72.1438 14.9924L71.4741 14.8774L72.3949 14.7788C73.2153 14.6638 74.0691 14.7788 74.8727 14.6473C75.6762 14.5158 76.4464 14.6473 77.25 14.4994C78.6053 14.3322 79.9691 14.239 81.3349 14.2201C82.5905 14.2201 83.8796 14.3023 85.1352 14.2201C85.3253 14.2257 85.5144 14.192 85.6903 14.1213C85.8663 14.0505 86.0251 13.9442 86.1565 13.8093C86.3407 13.4806 86.4244 13.1355 86.1565 12.9055C85.8886 12.6754 84.1308 12.1989 84.3651 11.5251C84.3651 11.328 84.8674 11.2951 85.085 11.2458C85.8551 11.1308 86.6587 11.0979 87.4288 10.9665C87.9143 10.8843 88.3329 10.7035 88.8016 10.5885C89.2704 10.4735 89.6052 10.4242 89.9903 10.3092C90.5675 10.1723 91.1556 10.0843 91.7482 10.0462C93.0413 10.2352 94.3558 10.2352 95.6489 10.0462C96.2369 9.85827 96.7476 9.4895 97.1054 8.99454C97.2729 8.78091 97.4905 8.61661 97.6746 8.40299C97.8588 8.18937 98.0765 7.79498 98.3276 7.51562C99.6837 8.14006 100.989 8.81381 102.279 9.53684C102.128 9.53684 102.044 9.73403 102.68 9.75047L102.764 9.81616Z" fill="#470024"/>
</g>
<g style="mix-blend-mode:multiply" opacity="0.2">
<path d="M102.061 13.3142C101.125 14.2992 100.087 15.1859 98.9635 15.9598C97.8952 16.5737 96.7749 17.0959 95.6152 17.5209C94.7718 17.8717 93.8897 18.1254 92.9868 18.2768C92.5482 18.3569 92.117 18.4723 91.6977 18.6219C91.5135 18.6219 91.1787 18.7205 91.0615 18.8519C90.9443 18.9834 90.9443 19.3942 91.2456 19.4928C92.0406 19.6568 92.8615 19.6568 93.6564 19.4928C95.2548 19.3551 96.8428 19.1191 98.411 18.7862C99.4093 18.5575 100.364 18.1748 101.24 17.6524C102.42 17.088 103.425 16.226 104.153 15.1546C104.522 14.3987 104.723 13.6428 103.953 13.1006C103.653 12.8342 103.268 12.6775 102.864 12.6569C102.663 12.624 101.726 12.6569 102.061 13.3142Z" fill="#470024"/>
</g>
<g style="mix-blend-mode:soft-light">
<path d="M123.724 28.4053C122.25 28.2177 120.809 27.8364 119.438 27.2715C119.053 27.0907 116.96 25.809 118.467 25.7597C118.467 25.431 117.63 24.7244 117.413 24.4615C117.195 24.1986 116.776 23.6563 116.425 23.2948C115.997 22.9388 115.494 22.6806 114.952 22.5389C114.232 22.2267 113.629 21.668 112.892 21.3558C111.419 20.4651 109.695 20.0566 107.97 20.1891C106.682 20.6219 105.472 21.2543 104.388 22.0624C102.875 22.8205 101.264 23.3733 99.5995 23.7056C96.7187 24.498 93.7957 25.1344 90.8437 25.6118C89.1695 25.8747 87.3447 25.9404 85.6036 26.2526C84.9004 26.43 84.1837 26.5509 83.4606 26.6142C82.4394 26.6142 81.4517 26.6142 80.4472 26.6142C78.4969 26.8333 76.5323 26.9047 74.5709 26.8278C74.0351 26.8278 71.5909 27.1893 71.39 26.3513C72.3469 25.9888 73.3612 25.7941 74.3867 25.7761C75.8265 25.6118 77.2161 25.5461 78.6726 25.4639C82.6293 24.985 86.5458 24.2271 90.3917 23.1962C92.25 22.8183 94.0748 22.3253 95.9164 21.8488C96.8135 21.6656 97.6971 21.4241 98.5615 21.1257C99.4823 20.7806 100.319 20.2877 101.24 19.959C102.475 19.5668 103.615 18.9291 104.589 18.0858C104.929 17.892 105.211 17.6144 105.409 17.2805C105.911 16.1631 104.203 15.5551 103.417 15.1279C102.701 14.6867 101.951 14.3021 101.173 13.9777C99.9511 13.5833 98.7289 13.271 97.5235 12.7781C96.0543 12.2666 94.5562 11.8387 93.0368 11.4963C91.8984 11.1513 90.7767 10.7897 89.6885 10.4775C88.8682 10.2639 88.0143 10.0503 87.2107 9.86954C86.8592 9.86954 86.2063 9.86949 86.1561 9.40938C86.4072 9.31079 86.6583 9.40942 86.9262 9.29439C86.809 8.76856 83.5778 8.52203 83.0589 8.53847C81.8869 8.53847 80.7653 8.25916 79.6101 8.27559C78.4549 8.29202 77.1993 8.50562 75.9939 8.55491C73.7171 8.63708 71.4402 8.55491 69.1633 8.55491C68.2593 8.55491 67.3385 8.55491 66.4512 8.55491C65.9822 8.47061 65.5183 8.36092 65.0617 8.22629C65.0617 7.66759 67.2381 7.2896 67.757 7.15815C67.4055 6.32009 64.4088 6.40227 63.7558 6.40227C62.3745 6.39969 60.9941 6.47101 59.6207 6.6159C58.3148 6.74736 57.009 6.61588 55.7032 6.69804C54.7254 6.90916 53.721 6.97562 52.7232 6.89522C52.6227 6.89522 51.6851 6.68161 51.6349 6.64874C51.2666 6.18863 52.2209 5.49846 52.4385 5.30127C53.8463 4.32373 55.4233 3.6055 57.0927 3.18152C56.9312 2.77153 56.808 2.348 56.7244 1.91619C70.7937 -0.492543 85.2782 1.46625 98.1597 7.51966C99.5158 8.14409 100.822 8.81784 102.111 9.54087C102.25 9.60216 102.384 9.67358 102.513 9.7545H102.663C110.899 14.4316 118.054 20.7381 123.674 28.2739L123.724 28.4053Z" fill="#F9AEA4"/>
</g>
<path d="M136.882 67.9563C136.882 69.5174 136.882 71.0784 136.697 72.6067C136.303 78.2398 135.178 83.8005 133.349 89.1542C133.358 89.2141 133.358 89.275 133.349 89.3349C133.499 88.6936 133.572 88.0374 133.567 87.3795C133.637 87.0159 133.738 86.6587 133.868 86.3114C133.91 85.8796 133.91 85.4449 133.868 85.0132V79.3111C133.868 78.1937 134.153 77.142 134.136 76.0246C134.136 75.4495 134.136 74.8743 134.136 74.2992C134.136 73.7241 134.37 73.2147 134.421 72.656C134.365 71.0013 134.18 69.3532 133.868 67.7262C133.868 66.9539 133.868 66.1816 133.868 65.4257C133.847 65.104 133.774 64.7877 133.65 64.4891C133.608 64.0629 133.608 63.6335 133.65 63.2073C133.576 62.8017 133.475 62.401 133.349 62.0078C133.316 61.625 133.316 61.2402 133.349 60.8575C133.371 60.1772 133.297 59.4972 133.132 58.8363C133.048 58.4748 133.132 58.1297 133.014 57.7518C132.897 57.3738 132.763 57.1273 132.663 56.8151C132.445 56.1249 132.127 55.5005 131.909 54.8103C131.358 53.5285 131.014 52.1702 130.888 50.7844C130.766 49.3926 130.422 48.0283 129.867 46.742C129.308 45.4555 128.564 44.2546 127.657 43.1762C127.205 42.5025 127.49 41.9602 127.305 41.2536C127.135 40.7952 126.84 40.3916 126.452 40.0869C125.835 39.7416 125.15 39.5288 124.443 39.4624C123.723 39.4624 123.17 39.9389 122.417 39.6925C122.517 39.2817 123.723 38.7887 124.091 38.7066C124.459 38.6244 125.765 38.7065 125.765 37.8685C125.849 37.2769 125.146 36.8332 124.777 36.4553C124.578 36.2141 124.394 35.9617 124.225 35.6994C123.974 35.3707 123.622 35.3707 123.321 35.1242C123.02 34.8778 122.835 34.5656 122.517 34.3191C122.297 34.0952 122.091 33.8593 121.898 33.6125C121.414 33.1047 120.888 32.6374 120.324 32.2157C119.167 31.4274 117.846 30.9 116.457 30.6711C115.901 30.6788 115.355 30.5275 114.885 30.2357C114.415 29.9439 114.042 29.5242 113.812 29.0278C113.393 28.3541 113.393 28.2226 113.962 27.6803C114.198 27.4821 114.373 27.2235 114.468 26.9333C114.562 26.6431 114.573 26.3328 114.498 26.0371C114.352 24.8829 113.816 23.8102 112.975 22.9909C112.134 22.1715 111.038 21.6529 109.861 21.5182C109.308 21.4031 108.739 21.5182 108.187 21.4032C107.837 21.299 107.478 21.2274 107.115 21.1896C106.278 21.1896 105.608 20.9102 104.771 20.9266H102.026C101.287 21.0334 100.537 21.0334 99.7991 20.9266C99.9163 20.4337 100.988 20.1707 101.473 19.9735C102.343 19.6008 103.173 19.144 103.951 18.6096C104.543 18.2227 105.069 17.7457 105.508 17.1964C105.825 16.814 106.178 16.4619 106.563 16.1448C105.771 15.477 104.886 14.9237 103.934 14.5015C102.88 14.0086 101.741 13.6142 100.586 13.2198C99.4308 12.8254 98.5434 12.7432 97.5222 12.4803C96.2752 12.1579 95.1519 11.4838 94.2911 10.5413C93.5514 9.76205 92.6644 9.13138 91.6794 8.68443C90.7793 8.35707 89.8393 8.14713 88.8835 8.05999C88.4322 7.95431 87.9733 7.88293 87.5108 7.84641C87.0253 7.84641 86.4728 7.92857 86.004 7.84641C85.3924 7.70515 84.7714 7.60627 84.1457 7.55059C83.5904 7.62768 83.0268 7.62768 82.4715 7.55059C81.9358 7.41913 81.3833 7.40269 80.7974 7.28766C79.2237 6.90971 78.3699 5.3815 77.3152 4.31339C76.7726 3.82921 76.0725 3.54974 75.3396 3.52467C74.2469 3.23299 73.1232 3.06752 71.9913 3.03166H68.1575C67.443 3.02692 66.73 3.09855 66.0313 3.24529C65.3956 3.27791 64.7586 3.27791 64.1228 3.24529C62.9844 3.37675 61.9129 3.75469 60.7745 3.80399C60.3068 3.75799 59.846 3.65874 59.4017 3.50822C59.0166 3.50822 58.347 3.70541 58.0122 3.50822C57.2923 3.196 58.8492 1.86498 57.1583 2.1279C55.4674 2.39082 53.5254 2.91664 51.6671 3.29459C49.7595 3.68051 47.8802 4.19104 46.0419 4.82279C44.8997 5.20662 43.7816 5.65657 42.6936 6.17027C40.9733 7.01444 39.1875 7.72327 37.353 8.29007C46.9685 3.45442 57.6212 0.941834 68.4254 0.961207C78.6652 0.932638 88.7787 3.17979 98.0077 7.53419C99.3638 8.15862 100.67 8.83232 101.959 9.55535C102.098 9.61664 102.232 9.68805 102.361 9.76898H102.511C110.747 14.4461 117.902 20.7526 123.522 28.2883C127.559 33.6958 130.748 39.667 132.981 46.0026C133.044 46.2212 133.122 46.4353 133.215 46.6434C133.215 46.857 133.349 47.0707 133.433 47.2843C134.82 51.5356 135.774 55.9117 136.279 60.3481C136.413 61.5641 136.513 62.7965 136.58 64.0454C136.882 65.3928 136.882 66.6581 136.882 67.9563Z" fill="url(#paint1_radial_2707_724)"/>
<path d="M136.783 64.1558C136.716 62.907 136.615 61.6745 136.481 60.4585C135.976 56.0221 135.023 51.6461 133.635 47.3948C133.635 47.1812 133.485 46.9675 133.418 46.7539C133.325 46.5458 133.246 46.3317 133.183 46.113C130.95 39.7774 127.762 33.8063 123.724 28.3989C118.104 20.8631 110.949 14.5565 102.714 9.87945H102.563C102.435 9.79853 102.3 9.72711 102.161 9.66582C100.872 8.94279 99.5662 8.26909 98.2101 7.64466C85.3286 1.59125 70.8441 -0.367543 56.7748 2.04119C50.0784 3.18055 43.5977 5.31382 37.5555 8.36769C29.796 12.2671 22.8687 17.5884 17.1475 24.0442L15.8584 25.5725C21.4931 19.3511 28.2537 14.2086 35.7976 10.4053C45.1728 5.71334 55.5244 3.20721 66.0472 3.08181C76.57 2.95641 86.9804 5.21511 96.469 9.68227C97.8083 10.3067 99.1309 10.9805 100.42 11.7035L100.822 11.9171H100.972C109.208 16.5942 116.363 22.9007 121.983 30.4365C123.738 32.7931 125.337 35.2575 126.771 37.8146C128.625 41.1231 130.188 44.5811 131.442 48.1507C131.442 48.3643 131.576 48.5779 131.66 48.7915C131.743 49.0051 131.81 49.2188 131.877 49.4324C133.265 53.6837 134.218 58.0598 134.724 62.4962C134.857 63.7122 134.975 64.9446 135.042 66.1935C135.109 67.4424 135.142 68.7077 135.142 69.9894C135.142 71.5505 135.142 73.1115 134.975 74.6398C134.587 80.2739 133.462 85.8355 131.626 91.1873C131.636 91.2471 131.636 91.3081 131.626 91.368C130.828 93.7209 129.889 96.0255 128.814 98.2696C126.78 102.562 124.282 106.628 121.364 110.397C120.878 111.038 120.359 111.629 119.857 112.237C120.995 110.972 122.1 109.69 123.205 108.359C126.124 104.585 128.622 100.513 130.655 96.2156C131.731 93.9715 132.67 91.6669 133.468 89.3139C133.477 89.254 133.477 89.1931 133.468 89.1332C135.296 83.7796 136.422 78.2188 136.816 72.5857C136.933 71.0575 137 69.4964 137 67.9353C136.883 66.67 136.883 65.4047 136.783 64.1558Z" fill="url(#paint2_radial_2707_724)"/>
<path d="M92.1997 52.2575C93.0876 52.3723 93.983 52.4217 94.8784 52.4054C94.8784 52.1096 95.3304 52.0932 95.2969 51.7481C94.9342 51.472 94.483 51.3321 94.0245 51.3537C93.7064 51.3537 92.8192 51.518 92.7522 51.896L92.1997 52.2575Z" fill="#F9AEA4"/>
<path d="M73.2646 21.4135C74.1512 21.5424 75.0473 21.5973 75.9433 21.5778C75.9433 21.282 76.3786 21.2656 76.3451 20.9205C75.9929 20.6356 75.5454 20.4892 75.0895 20.5097C74.7546 20.5097 73.8841 20.6905 73.8004 21.052L73.2646 21.4135Z" fill="#F9AEA4"/>
<path d="M62.7339 115.039C63.6218 115.153 64.5172 115.203 65.4125 115.187C65.4125 114.891 65.8646 114.874 65.8311 114.529C65.4684 114.253 65.0172 114.113 64.5587 114.135C64.2406 114.135 63.3534 114.299 63.2864 114.677L62.7339 115.039Z" fill="#F9AEA4"/>
<path d="M15.7734 64.2415C16.6613 64.3567 17.5567 64.4061 18.4521 64.3894C18.4521 64.0936 18.8874 64.0772 18.8539 63.7321C18.4964 63.4584 18.0512 63.3186 17.5983 63.3377C17.2634 63.3377 16.3929 63.502 16.3092 63.88L15.7734 64.2415Z" fill="#F9AEA4"/>
<path d="M109.191 91.1481C109.604 90.4836 110.131 89.8942 110.748 89.4062C110.865 89.8335 111.384 89.8828 111.619 90.2443C111.736 90.503 111.797 90.7829 111.797 91.0659C111.797 91.349 111.736 91.6289 111.619 91.8876C111.236 92.5932 110.683 93.1967 110.01 93.6462C109.336 94.0957 108.561 94.3775 107.751 94.4675C107.232 94.5661 106.714 94.7961 106.261 94.4675C106.073 94.3299 105.948 94.1247 105.913 93.8968C105.879 93.6689 105.938 93.4369 106.077 93.2515C106.454 92.8702 106.889 92.5486 107.366 92.2984C107.634 92.1505 108.22 91.9204 108.27 91.6411L109.191 91.1481Z" fill="#F97F7C"/>
<path d="M115.955 90.6094C115.319 91.1845 114.716 91.7268 114.113 92.2526C114.331 92.6306 115.134 91.9569 115.402 91.8583C115.67 91.7597 115.905 91.8583 116.089 91.6118C116.273 91.3653 116.507 90.938 116.089 90.9216L115.955 90.6094Z" fill="#F9AEA4"/>
<path d="M104.219 67.0703C103.599 67.629 102.997 68.1713 102.394 68.7136C102.612 69.0915 103.415 68.4342 103.666 68.3191C103.917 68.2041 104.185 68.3192 104.37 68.0727C104.554 67.8262 104.788 67.4154 104.37 67.3825L104.219 67.0703Z" fill="#F9AEA4"/>
<path d="M48.1516 6.64062C47.5155 7.21576 46.9128 7.75803 46.3101 8.28387C46.5277 8.66182 47.3313 7.9881 47.5992 7.88951C47.8671 7.79091 48.1014 7.8895 48.2856 7.62658C48.4697 7.36366 48.7041 6.96928 48.2856 6.95285L48.1516 6.64062Z" fill="#F9AEA4"/>
<path d="M19.8764 72.6683C19.7211 73.4384 19.7614 74.2342 19.9936 74.9853C19.9936 75.2318 19.9936 75.3797 20.2447 75.3961C20.4958 75.4126 20.7972 75.7412 21.0316 75.9055C21.266 76.0699 21.9022 76.4971 22.2537 76.4149C22.6121 76.2364 22.9176 75.9705 23.141 75.6426C23.3378 75.2145 23.3792 74.7332 23.2582 74.2787C23.0406 73.5557 22.7392 72.5205 21.9859 72.2247C21.69 72.0995 21.3813 72.0058 21.0651 71.9453C20.5963 71.9453 20.5126 71.9453 20.2447 72.3068L19.8764 72.6683Z" fill="#F97F7C"/>
<path d="M48.1526 31.8125C48.007 31.912 47.8913 32.0483 47.8178 32.2069C47.8178 32.2069 47.8178 32.2069 47.8178 32.3055C47.812 32.3711 47.812 32.4371 47.8178 32.5027C47.8321 32.5991 47.8726 32.6898 47.935 32.7656C48.0235 32.782 48.1144 32.782 48.2029 32.7656C48.2902 32.7176 48.3648 32.65 48.4205 32.5684C48.4205 32.4205 48.6047 32.2069 48.521 32.0426L48.4205 31.8618C48.3941 31.8418 48.3618 31.831 48.3284 31.831C48.2951 31.831 48.2627 31.8418 48.2363 31.8618L48.1526 31.8125Z" fill="#F97F7C"/>
<path d="M48.1533 34.8168C47.9987 35.5869 48.0389 36.3825 48.2705 37.1338C48.2705 37.3803 48.2704 37.5281 48.5216 37.5446C48.7727 37.561 49.074 37.8897 49.3084 38.054C49.5428 38.2183 50.179 38.6455 50.5306 38.5634C50.8889 38.3849 51.1945 38.1189 51.4179 37.7911C51.6147 37.3629 51.656 36.8815 51.535 36.4271C51.3174 35.7041 51.0161 34.6689 50.2627 34.3731C49.9668 34.2479 49.6581 34.1543 49.3419 34.0938C48.8731 34.0938 48.7894 34.0938 48.5216 34.4553L48.1533 34.8168Z" fill="#F97F7C"/>
<path d="M25.1655 25.9023C26.0691 26.1823 27.0282 26.2444 27.9614 26.0831C28.3285 25.8587 28.6807 25.6117 29.0161 25.3436C29.5439 25.0688 30.0242 24.7139 30.4392 24.292C30.5351 24.1852 30.6029 24.0569 30.6367 23.9184C30.6704 23.78 30.669 23.6355 30.6327 23.4977C30.5963 23.3598 30.5261 23.2328 30.4282 23.1278C30.3302 23.0227 30.2075 22.9429 30.0708 22.8952C28.8487 22.4023 25.5004 22.8131 25.5338 24.6535L25.1655 25.9023Z" fill="#F9AEA4"/>
<path d="M92.5518 46.6785C93.451 46.9509 94.4028 47.0128 95.3309 46.8592C95.71 46.6387 96.0686 46.3858 96.4023 46.1034C96.9367 45.8388 97.4187 45.4826 97.8254 45.0517C97.9217 44.9464 97.9898 44.8194 98.0238 44.682C98.0577 44.5445 98.0564 44.4009 98.0199 44.2641C97.9834 44.1273 97.9128 44.0016 97.8146 43.8981C97.7164 43.7946 97.5935 43.7167 97.4571 43.6713C96.2182 43.1784 92.8866 43.5727 92.9201 45.4132L92.5518 46.6785Z" fill="#F97F7C"/>
<path d="M21.1138 68.9047C21.1138 69.0855 21.683 70.4329 22.1852 69.9071C22.3297 69.7174 22.4146 69.4903 22.4295 69.2539C22.4444 69.0174 22.3886 68.7818 22.2689 68.5761C22.135 68.3789 21.8169 67.9188 21.5156 68.0338C21.2142 68.1489 21.3481 68.231 21.3147 68.3624C21.2151 68.5993 21.2151 68.8651 21.3147 69.1019L21.1138 68.9047Z" fill="#CF6854"/>
<path d="M23.04 71.6724C23.0507 71.3914 23.125 71.1164 23.2577 70.8672C23.3414 70.9493 23.4753 70.8671 23.5758 70.9822C23.6762 71.0972 23.7265 71.1794 23.7934 71.2616C23.8784 71.3437 23.9412 71.4453 23.9762 71.5571C24.0113 71.669 24.0175 71.7876 23.9943 71.9024C23.958 71.9779 23.9014 72.0423 23.8306 72.0886C23.7598 72.1349 23.6775 72.1614 23.5925 72.1653C23.4251 72.1653 23.107 72.0832 23.107 71.8695L23.04 71.6724Z" fill="#CF6854"/>
<path d="M26.1865 110.25C26.652 111.013 27.2146 111.714 27.8607 112.337C28.3294 112.748 28.6978 113.241 29.1665 113.668C29.8251 114.339 30.595 114.894 31.4433 115.311C31.8786 115.492 31.9121 115.311 31.7447 114.868C31.4601 114.161 30.8741 113.98 30.2547 113.553C29.4164 113.074 28.6548 112.476 27.9946 111.778C27.5258 111.17 27.1408 110.234 26.1865 110.25Z" fill="#F9AEA4"/>
<path d="M26.5887 109.049C26.3196 108.485 26.1282 107.888 26.0195 107.275C26.0672 107.193 26.1296 107.121 26.2037 107.061C26.2537 107.037 26.3084 107.025 26.3639 107.024C26.4195 107.022 26.4746 107.033 26.5255 107.055C26.5764 107.077 26.6219 107.109 26.6588 107.15C26.6957 107.191 26.7232 107.239 26.7394 107.291C26.7991 107.837 26.7991 108.388 26.7394 108.934L26.5887 109.049Z" fill="#F9AEA4"/>
<path d="M112.473 87.3095C112.681 87.0822 112.924 86.8882 113.193 86.7344C113.193 86.7344 113.343 86.7344 113.427 86.7344C113.56 86.8061 113.661 86.923 113.712 87.063C113.829 87.3259 113.712 87.556 113.427 87.7203C113.143 87.8846 112.255 87.9339 112.339 87.3917L112.473 87.3095Z" fill="#F9AEA4"/>
<path d="M27.0066 53.4814C27.2147 53.2541 27.4575 53.0601 27.7265 52.9062C27.7265 52.9062 27.8772 52.9062 27.9609 52.9062C28.0845 52.984 28.1786 53.0995 28.2288 53.2349C28.3627 53.4978 28.2288 53.7279 27.9609 53.8922C27.693 54.0565 26.7722 54.1059 26.8559 53.5636L27.0066 53.4814Z" fill="#F9AEA4"/>
<path d="M27.8446 74.1737C28.2755 73.7281 28.7653 73.3412 29.3011 73.0234C29.435 73.1549 29.6024 73.0235 29.7698 73.1221C30.0259 73.2719 30.2211 73.5042 30.3223 73.7794C30.5735 74.3052 30.2051 74.7653 29.7698 75.0939C29.3346 75.4226 27.4093 75.5376 27.5767 74.4531L27.8446 74.1737Z" fill="#CF6854"/>
<path d="M44.2511 32.7526C44.6817 32.3019 45.1715 31.9096 45.7076 31.5859C45.8416 31.7174 46.009 31.5859 46.1764 31.6845C46.4324 31.8343 46.6277 32.0666 46.7288 32.3418C46.8123 32.5914 46.8006 32.8623 46.6959 33.1041C46.5912 33.3459 46.4006 33.5422 46.1596 33.6564C45.5904 34.0837 43.8158 34.1001 43.9833 33.0156L44.2511 32.7526Z" fill="#D57A68"/>
<path d="M97.4058 124.62C97.8607 124.104 98.3471 123.615 98.8623 123.157C99.1858 122.957 99.5213 122.776 99.8668 122.615C99.9843 122.54 100.117 122.491 100.256 122.471C100.394 122.451 100.536 122.461 100.67 122.5C101.089 122.713 101.039 123.272 100.838 123.617C100.418 124.187 99.8354 124.622 99.1636 124.866C98.8957 124.965 97.7573 125.195 97.7908 124.62H97.4058Z" fill="#F9AEA4"/>
<defs>
<radialGradient id="paint0_radial_2707_724" cx="0" cy="0" r="1" gradientUnits="userSpaceOnUse" gradientTransform="translate(83.6944 31.3079) scale(79.2545 77.7912)">
<stop offset="0.28" stop-color="#E95059"/>
<stop offset="0.41" stop-color="#E44D59"/>
<stop offset="0.56" stop-color="#D6465A"/>
<stop offset="0.73" stop-color="#BF395C"/>
<stop offset="0.89" stop-color="#9F275E"/>
<stop offset="1" stop-color="#861960"/>
</radialGradient>
<radialGradient id="paint1_radial_2707_724" cx="0" cy="0" r="1" gradientUnits="userSpaceOnUse" gradientTransform="translate(120.408 17.3115) scale(54.996 53.9806)">
<stop stop-color="#FF953D"/>
<stop offset="0.21" stop-color="#FA873F"/>
<stop offset="0.61" stop-color="#EB6244"/>
<stop offset="1" stop-color="#DB384A"/>
</radialGradient>
<radialGradient id="paint2_radial_2707_724" cx="0" cy="0" r="1" gradientUnits="userSpaceOnUse" gradientTransform="translate(117.396 15.6966) scale(66.7486 65.5162)">
<stop stop-color="#FFCC7A"/>
<stop offset="0.14" stop-color="#FCBE75"/>
<stop offset="0.42" stop-color="#F39969"/>
<stop offset="0.79" stop-color="#E45D56"/>
<stop offset="1" stop-color="#DB384A"/>
</radialGradient>
</defs>
</svg>
