<svg width="89" height="89" viewBox="0 0 89 89" fill="none" xmlns="http://www.w3.org/2000/svg">
<path d="M88.519 44.5575C88.5256 52.385 86.4581 60.074 82.5274 66.8396C78.5967 73.6051 72.9436 79.2048 66.1454 83.067C59.4965 86.8916 51.9585 88.8937 44.291 88.8715C38.4784 88.8742 32.7223 87.73 27.3514 85.5043C21.9804 83.2785 17.1001 80.0148 12.989 75.8996C8.87797 71.7844 5.6167 66.8983 3.39169 61.5206C1.16668 56.1428 0.0214837 50.3787 0.0214844 44.5575C0.0214844 43.5034 0.0630274 42.4632 0.146124 41.4368C0.931979 29.9662 6.13875 19.2506 14.6668 11.553C23.1948 3.85546 34.3764 -0.221281 45.85 0.183788C57.3235 0.588856 68.1907 5.44403 76.1563 13.7239C84.122 22.0038 88.5624 33.06 88.5397 44.5575H88.519Z" fill="url(#paint0_radial_2707_784)"/>
<path d="M86.3584 45.5227C86.3665 53.1745 84.3503 60.6919 80.5152 67.31C76.6801 73.9281 71.1628 79.4107 64.5248 83.1999C58.0387 86.9465 50.6775 88.9062 43.1898 88.8796C37.5101 88.8768 31.8868 87.7528 26.6413 85.5716C21.3958 83.3905 16.6311 80.1951 12.6198 76.1682C8.60851 72.1413 5.42921 67.362 3.26389 62.1035C1.09857 56.8451 -0.0103549 51.2107 0.000568198 45.5227C0.000568198 44.4824 0.000563132 43.4421 0.125208 42.4851C0.901156 31.3023 5.9841 20.8586 14.3016 13.3571C22.6192 5.85554 33.5209 1.88271 44.7073 2.27674C55.8936 2.67077 66.4898 7.4008 74.2605 15.469C82.0312 23.5373 86.3689 34.3129 86.3584 45.5227Z" fill="url(#paint1_radial_2707_784)"/>
<path d="M0.125516 43.8283C0.125516 44.7853 0.000876743 45.784 0.000876743 46.7826C-0.0346904 52.2794 1.01222 57.7293 3.08174 62.8205C5.15125 67.9117 8.2028 72.5443 12.0617 76.4534C15.9207 80.3624 20.5112 83.4712 25.571 85.6018C30.6307 87.7325 36.0603 88.8432 41.549 88.8704C48.759 88.8976 55.8451 86.9941 62.0738 83.3572C68.4674 79.6433 73.77 74.3066 77.4465 67.8851C81.123 61.4636 83.0435 54.1847 83.0141 46.7826C83.0141 45.9504 82.4739 44.7021 82.4324 43.7659C82.4324 43.2874 82.4324 42.8089 82.4324 42.3096C82.4324 41.2694 82.2039 40.2291 82.2039 39.2097C82.2039 38.6688 82.2039 38.1278 82.2039 37.5869C82.2039 37.046 81.9754 36.6924 81.9546 36.2139C81.7751 35.219 81.7193 34.2057 81.7884 33.1972C81.9338 32.5106 82.2246 31.8865 81.5183 31.4288C80.812 30.9711 80.9158 31.2623 80.5834 30.7006C80.34 30.3034 80.0545 29.9337 79.7318 29.5979C79.1685 29.0973 78.6665 28.5317 78.2361 27.9128C78.0789 27.7372 77.9462 27.5413 77.8414 27.3302C77.8414 27.0598 78.1321 26.831 77.9867 26.5813C77.405 26.4357 76.8026 26.5813 76.2417 26.5813C75.6808 26.5813 75.4108 25.7491 75.3277 25.1041C75.3013 24.751 75.3509 24.3962 75.4731 24.0639C75.5242 23.7051 75.5242 23.3409 75.4731 22.9821V23.523C75.5695 22.8329 75.5695 22.1327 75.4731 21.4426C75.2056 20.8891 74.8313 20.3941 74.372 19.9862C73.857 19.5659 73.2268 19.312 72.5647 19.258C71.6298 19.0084 71.796 17.9681 71.3805 17.1776C71.1978 16.8775 70.9661 16.6103 70.6951 16.387C70.0756 15.7008 69.5062 14.9707 68.9916 14.2025C67.9944 12.8502 67.205 12.8919 65.647 12.8086C64.1278 12.6602 62.6451 12.252 61.2636 11.6019C59.5599 10.4576 57.5384 9.8823 55.4884 9.95834C54.2902 10.3681 53.0695 10.7086 51.8322 10.9778C50.7684 10.9463 49.7365 10.6067 48.8615 9.99999C46.9717 8.6737 44.8614 7.69448 42.6293 7.10811C40.577 6.7048 38.475 6.62061 36.3971 6.85847C34.2592 7.27887 32.1706 7.92034 30.1649 8.77252C27.9181 9.83545 25.8223 11.1927 23.9326 12.8086C22.2084 13.9945 20.0479 14.2441 18.386 15.4924C17.6703 16.011 17.0515 16.6519 16.5579 17.3856C16.3709 17.7185 16.2878 18.1138 16.1216 18.4467C15.799 18.9872 15.408 19.4837 14.9582 19.9238C11.4059 23.8767 5.36062 25.2914 2.76386 29.9101C2.32761 30.7006 1.24728 34.8407 0.997991 35.6521C0.499414 37.2749 4.11418 38.4192 3.67793 40.0419C3.48144 40.516 3.23777 40.969 2.95076 41.3942C2.75388 41.8788 2.48041 42.3283 2.14067 42.7257C1.80828 43.121 0.665642 43.2458 0.125516 43.8283Z" fill="url(#paint2_radial_2707_784)"/>
<g style="mix-blend-mode:multiply" opacity="0.2">
<path d="M78.9842 58.5917C78.48 56.7834 77.6102 55.0981 76.4289 53.6402C75.6395 52.4751 74.7463 51.3725 73.9569 50.2282C73.381 49.3245 72.7422 48.4625 72.0456 47.6485C71.2354 46.7955 69.9682 45.568 70.633 44.2573C70.9446 43.55 71.7964 43.1546 72.3573 42.6553C72.9345 42.0629 73.4691 41.4303 73.9569 40.7621C74.4091 40.0594 74.7195 39.2749 74.8708 38.4528C75.2262 37.6275 75.3275 36.7147 75.1617 35.8314C74.954 35.02 75.1617 34.3543 74.6631 33.6261C74.2314 33.0561 73.6684 32.5993 73.022 32.2946C71.8665 31.7563 70.8501 30.9591 70.0514 29.9645C69.5943 29.382 69.3865 28.6954 68.6802 28.3418C67.962 28.1527 67.2204 28.0686 66.4782 28.0921C65.2259 28.0929 64.0025 27.7159 62.9673 27.0102C61.7209 25.5955 62.9674 23.2446 61.1808 22.246C60.0837 21.5338 58.8275 21.105 57.5245 20.9977C55.4695 21.0945 53.4365 21.4653 51.4793 22.1004C50.5589 22.2603 49.7023 22.677 49.0077 23.3026C48.3132 23.9283 47.809 24.7374 47.553 25.6371C47.5015 26.2194 47.565 26.8062 47.7399 27.3639C47.8427 28.0798 48.0383 28.7792 48.3216 29.4444C49.7343 32.3363 53.162 33.4805 55.821 34.8744C56.7975 35.3983 57.5383 36.2747 57.8933 37.3256C58.2482 38.3765 58.1906 39.5233 57.7322 40.5333C56.9982 41.8105 56.0249 42.9337 54.8655 43.8412C54.2423 44.5278 53.5152 45.1727 52.9128 45.9217C52.3883 46.5817 51.9094 47.2768 51.4793 48.0021C50.4406 49.5833 49.8589 51.3933 48.6956 52.8912C47.7166 54.3896 46.3532 55.5968 44.7484 56.3864C43.1759 56.8035 41.5558 57.0134 39.929 57.0106C38.4698 57.2083 36.9955 57.271 35.5249 57.1978C34.7147 57.1978 33.9668 56.9481 33.1566 56.9689C32.3201 56.9766 31.4849 56.9 30.6637 56.7401C28.8742 56.363 27.1561 55.7028 25.574 54.7845C24.5663 54.1963 23.8226 53.243 23.4966 52.1215C23.204 50.8092 23.3425 49.4373 23.8913 48.2102C24.4961 47.2743 25.3691 46.5431 26.3959 46.1125C27.4227 45.6818 28.5555 45.5718 29.6458 45.7968C31.6399 46.4728 33.539 47.4027 35.2963 48.5638C36.0531 49.0984 36.9565 49.3855 37.8826 49.3855C38.8087 49.3855 39.7122 49.0984 40.469 48.5638C41.0345 48.1167 41.5014 47.5571 41.8401 46.9203C42.167 46.5475 42.553 46.2311 42.9827 45.9841C44.4005 44.9635 45.7155 43.8068 46.909 42.5305C47.527 42.0213 48.0312 41.3878 48.3891 40.671C48.747 39.9542 48.9505 39.1701 48.9864 38.3696C48.8972 37.0073 48.3478 35.716 47.4284 34.708C46.6071 33.6994 45.9097 32.5958 45.351 31.4208C45.0941 30.8831 44.7135 30.4141 44.2404 30.0524C43.7673 29.6907 43.2152 29.4467 42.6296 29.3403C41.5016 29.0042 40.2897 29.093 39.2226 29.59C38.9087 29.7724 38.6446 30.0297 38.454 30.339C38.3272 30.5879 38.1585 30.8131 37.9554 31.0048C37.4776 31.5041 37.0413 32.2114 36.5842 32.7523C35.9684 33.4874 35.2715 34.1504 34.5068 34.7287C33.9546 35.2315 33.2774 35.5761 32.5463 35.7262C31.8152 35.8763 31.0572 35.8264 30.352 35.5817C29.1967 35.2706 28.1205 34.7175 27.1944 33.959C25.948 32.6899 26.2596 30.3598 26.0934 28.7578C25.9763 26.7497 25.6064 24.7645 24.9924 22.8493C24.7189 21.984 24.199 21.2176 23.4966 20.644C22.9233 20.338 22.257 20.2564 21.627 20.4151C20.5409 20.7164 19.5291 21.2407 18.6562 21.9547C17.6121 22.8066 16.8217 23.9293 16.3711 25.2002C15.0416 27.9048 14.086 30.7135 12.8603 33.5221C12.1078 35.0338 11.8325 36.739 12.0709 38.4112C12.4032 40.3044 12.0709 43.8204 9.47411 43.8828C6.87735 43.9452 6.06721 40.4709 5.1116 38.3904C4.96618 38.0783 4.32212 36.3099 3.74044 37.1213C3.74044 37.2669 3.74045 38.0991 3.6158 38.3071C3.49116 38.5152 3.34578 39.1809 3.26268 39.6594C3.13629 40.2416 2.81718 40.7639 2.35711 41.1416C1.89704 41.5192 1.32309 41.7301 0.728304 41.7399C0.556734 41.74 0.386892 41.7046 0.22962 41.6359C0.146524 42.6623 0.10498 43.7025 0.10498 44.7566C0.159846 56.4625 4.83744 67.6711 13.1163 75.9349C21.3951 84.1986 32.6027 88.8461 44.2915 88.8625C51.966 88.8883 59.5117 86.8861 66.1666 83.058C65.4978 82.3742 64.7268 81.7986 63.8814 81.352C62.5243 80.802 61.1372 80.3297 59.7266 79.9373C58.584 79.4796 57.2752 79.3132 56.0911 78.9179C55.0604 78.6337 54.0746 78.2065 53.162 77.6488C52.705 77.3159 52.5387 76.6918 52.1856 76.2341C51.8324 75.7764 51.7909 75.5059 51.5416 75.1522C50.7937 74.1536 49.6512 73.0718 49.6512 71.6363C49.6825 71.0232 49.9438 70.4446 50.3829 70.0163C50.8221 69.5881 51.4066 69.3418 52.0194 69.3269C53.5038 69.363 54.9746 69.6225 56.382 70.0967C57.4622 70.3463 58.4593 70.8249 59.5604 71.1785C60.3561 71.4181 61.1227 71.7461 61.8456 72.1564C62.8719 72.8995 64.0757 73.3588 65.3356 73.4878C66.5286 73.5136 67.7038 73.1959 68.7218 72.5724C70.3214 71.7402 71.1315 69.9926 72.191 68.5987C72.6307 67.8796 73.1092 67.1851 73.6244 66.5183C73.9568 66.1854 74.3931 65.915 74.7255 65.5821C75.3632 64.9681 76.0589 64.4176 76.8029 63.9385C77.2296 63.7741 77.6342 63.5574 78.0077 63.2936C78.275 62.9554 78.4856 62.576 78.6311 62.1701C79.084 61.0347 79.2064 59.7939 78.9842 58.5917ZM39.7627 36.2475C40.3471 36.3558 40.888 36.6302 41.3208 37.0381C41.8535 37.6656 42.1477 38.4613 42.1517 39.285C42.132 39.9046 41.8885 40.4961 41.4662 40.9494C40.7499 41.3205 39.965 41.54 39.1603 41.5943C38.736 41.6873 38.2965 41.6873 37.8722 41.5943C37.5301 41.5677 37.1902 41.519 36.8543 41.4487C35.5663 40.9286 35.8572 38.9937 35.8156 38.0159L35.4625 37.8494C36.002 37.2612 36.6729 36.8094 37.4203 36.5309C38.1678 36.2525 38.9706 36.1554 39.7627 36.2475ZM17.2852 47.9813C16.9917 48.0022 16.698 47.9437 16.4349 47.812C16.1718 47.6802 15.9489 47.48 15.7895 47.2324C15.4199 46.545 15.2677 45.7614 15.3532 44.9855C15.4287 43.4106 15.7803 41.8613 16.3919 40.4084C17.0262 38.8583 17.8347 37.3856 18.8016 36.0186C17.7837 36.6428 18.8017 35.4153 20.0066 34.9784C20.7069 34.6243 21.4875 34.4594 22.271 34.4999C23.1795 34.743 24.0232 35.1842 24.7415 35.792C25.4598 36.3999 26.035 37.1593 26.4258 38.0159C26.8644 39.2821 26.9221 40.6492 26.5919 41.948C26.8195 41.6443 27.1062 41.3901 27.4347 41.2006C27.7632 41.0111 28.1268 40.8902 28.5032 40.8453C28.9669 40.9247 29.39 41.1593 29.7032 41.5108C30.0164 41.8622 30.2012 42.3098 30.2274 42.7801C30.2391 43.0028 30.2044 43.2254 30.1253 43.4338C30.0462 43.6422 29.9246 43.8318 29.7681 43.9904C29.6117 44.149 29.4239 44.2732 29.2168 44.355C29.0097 44.4367 28.7879 44.4744 28.5655 44.4654C28.2193 44.5059 27.8685 44.4585 27.5454 44.3276C27.2223 44.1967 26.9373 43.9865 26.7166 43.7164C26.4991 43.1527 26.4557 42.5366 26.5919 41.948L26.4258 42.1144C24.8678 43.654 23.1435 44.9855 21.5854 46.525C21.0155 47.0634 20.3363 47.4723 19.5941 47.7236C18.852 47.9749 18.0644 48.0628 17.2852 47.9813ZM41.1338 74.2368C40.8006 75.4035 40.0643 76.4137 39.0564 77.0871C37.517 77.7916 35.8037 78.0233 34.1329 77.7528C32.3603 77.5205 30.6047 77.1731 28.8771 76.7126C26.8751 76.3152 25.0622 75.261 23.7251 73.7167C21.704 71.0456 20.6954 67.7426 20.879 64.3962C20.8924 63.4816 21.2064 62.5968 21.7723 61.8789C22.1047 61.5252 22.4579 61.1923 22.811 60.8802C23.1642 60.5681 23.2265 60.2769 22.4371 60.7138C22.8318 59.9648 23.2266 59.2366 23.6628 58.5293C23.9253 58.3743 24.2039 58.2487 24.4937 58.1548C25.3479 57.918 26.2149 57.7305 27.0905 57.5931C27.9697 57.4548 28.86 57.3991 29.7496 57.4266C30.7567 57.3568 31.7686 57.4128 32.7619 57.5931C33.6109 57.8407 34.427 58.1899 35.1924 58.6333C35.9611 59.0286 36.7712 59.2367 37.5191 59.6736C37.8762 59.9195 38.1978 60.2135 38.4748 60.5473C38.8907 60.9252 39.2602 61.3512 39.5757 61.8165C40.145 62.8688 40.5845 63.9866 40.8845 65.1451C41.848 68.0897 41.9132 71.2551 41.0715 74.2368H41.1338ZM67.1429 56.9689C66.5675 57.8419 65.6849 58.4659 64.6708 58.7165C63.7963 58.8456 62.9034 58.7526 62.0741 58.446C61.4924 58.2796 60.9731 57.9468 60.4122 57.7803C59.8665 57.6343 59.3374 57.4321 58.8333 57.177C57.7376 56.7481 56.7511 56.08 55.9457 55.2213C55.3357 54.1094 54.9278 52.8978 54.7409 51.6429C54.3898 50.6332 54.325 49.5458 54.5539 48.5014C54.95 47.4417 55.4881 46.4409 56.1535 45.5264C56.4859 44.9854 56.9637 44.5485 57.2961 44.0284C57.6284 43.5083 58.3555 42.26 58.8749 41.4278C59.8743 40.6526 61.1008 40.2286 62.3649 40.2212C63.1159 40.202 63.8503 40.4447 64.4423 40.9077C65.5027 41.593 66.3176 42.5986 66.769 43.7788C66.956 44.3821 67.1222 45.0063 67.2884 45.6096C67.4189 46.2184 67.4885 46.8386 67.4961 47.4612C67.4961 48.0437 67.683 48.6055 67.7661 49.2088C67.7854 49.8355 67.7437 50.4626 67.6415 51.0812C67.6 51.6422 67.6 52.2055 67.6415 52.7664C67.6415 53.2449 67.8285 53.7026 67.8285 54.1811C67.8282 55.1522 67.5929 56.1087 67.1429 56.9689Z" fill="#190078"/>
</g>
<g style="mix-blend-mode:multiply" opacity="0.2">
<path d="M37.7057 22.9208C36.5751 21.1319 35.9173 19.0843 35.7944 16.9707C35.7944 15.7017 36.3346 14.2661 37.6849 13.9749C38.8524 13.8896 40.0148 14.1971 40.9879 14.8486C41.4972 15.1045 41.9663 15.434 42.3799 15.8265C42.7491 16.319 43.0045 16.8875 43.1277 17.4909C43.5848 19.0096 44.4573 21.9222 42.6292 22.9C41.8633 23.2753 41.0225 23.4721 40.1699 23.4757C39.3172 23.4793 38.4748 23.2896 37.7057 22.9208Z" fill="#190078"/>
</g>
<g style="mix-blend-mode:multiply" opacity="0.2">
<path d="M32.5334 14.4815C33.1885 14.7945 33.8902 14.9983 34.6108 15.0848C34.6108 14.7728 34.8393 14.7103 34.9224 14.4607C34.9853 14.2362 34.9853 13.9986 34.9224 13.7741C34.8705 13.6303 34.7783 13.5047 34.6566 13.4124C34.5349 13.3201 34.389 13.2651 34.2368 13.254C34.0083 13.254 33.759 13.254 33.5305 13.254C33.302 13.254 33.385 13.0667 33.1981 13.0876C33.0111 13.1084 32.4503 13.8781 32.5126 14.2734L32.5334 14.4815Z" fill="#190078"/>
</g>
<g style="mix-blend-mode:multiply" opacity="0.2">
<path d="M58.8331 15.849C59.8094 15.3705 61.9077 13.9974 63.1749 14.6632C64.1547 15.2525 65.0145 16.0219 65.7093 16.9309C66.038 17.2745 66.2809 17.6911 66.4181 18.1467C66.5553 18.6023 66.5829 19.0839 66.4987 19.5523C66.287 19.9886 65.9603 20.3587 65.5539 20.6227C65.1476 20.8867 64.6769 21.0346 64.1928 21.0502C63.6048 20.9976 63.0255 20.8718 62.4685 20.6757C61.7629 20.5506 61.0683 20.3697 60.3911 20.1348C59.8426 19.8681 59.3437 19.5092 58.9161 19.0737C58.637 18.8798 58.3793 18.6566 58.1475 18.408C58.0202 18.1677 57.9536 17.8998 57.9536 17.6278C57.9536 17.3558 58.0202 17.0879 58.1475 16.8476C58.4175 16.3691 58.9369 15.3289 58.8331 15.849Z" fill="#190078"/>
</g>
<g style="mix-blend-mode:multiply" opacity="0.2">
<path d="M40.8013 59.2756C41.1545 60.8567 41.2168 63.9982 43.5643 63.9566C43.8037 63.9881 44.0472 63.9577 44.2714 63.8681C44.4957 63.7786 44.6933 63.6329 44.8454 63.4451C44.9975 63.2574 45.099 63.0336 45.1402 62.7954C45.1814 62.5571 45.1609 62.3123 45.0808 62.0842C45.0295 61.4509 44.8097 60.8428 44.4444 60.3233C44.0791 59.8038 43.5815 59.3917 43.0034 59.1299C42.6573 59.001 42.2922 58.9307 41.9231 58.9219C41.5076 58.9219 41.0922 59.5877 40.7183 59.7957L40.8013 59.2756Z" fill="#190078"/>
</g>
<defs>
<radialGradient id="paint0_radial_2707_784" cx="0" cy="0" r="1" gradientUnits="userSpaceOnUse" gradientTransform="translate(54.034 20.3202) scale(51.3743 51.4499)">
<stop stop-color="#C0D6FA"/>
<stop offset="0.17" stop-color="#B5C8F1"/>
<stop offset="0.49" stop-color="#98A3D8"/>
<stop offset="0.92" stop-color="#6A67B1"/>
<stop offset="1" stop-color="#605BA9"/>
</radialGradient>
<radialGradient id="paint1_radial_2707_784" cx="0" cy="0" r="1" gradientUnits="userSpaceOnUse" gradientTransform="translate(46.2842 23.3024) scale(49.8738 50.4417)">
<stop stop-color="#9095C7"/>
<stop offset="0.2" stop-color="#8289BD"/>
<stop offset="0.57" stop-color="#5D68A1"/>
<stop offset="1" stop-color="#2A3B7C"/>
</radialGradient>
<radialGradient id="paint2_radial_2707_784" cx="0" cy="0" r="1" gradientUnits="userSpaceOnUse" gradientTransform="translate(56.3306 26.5821) scale(47.4966 48.0519)">
<stop offset="0.28" stop-color="#4A5190"/>
<stop offset="0.46" stop-color="#474C90"/>
<stop offset="0.66" stop-color="#3D3E8E"/>
<stop offset="0.87" stop-color="#2C278C"/>
<stop offset="1" stop-color="#20168B"/>
</radialGradient>
</defs>
</svg>
